<svg width="32" height="32" viewBox="0 0 32 32" fill="none" xmlns="http://www.w3.org/2000/svg">
<g clip-path="url(#clip0_161_2474)">
<circle cx="16" cy="16" r="16" fill="white"/>
<path d="M23 13.5H22.18L20.48 7.65C20.3393 7.16763 20.0836 6.75081 19.7474 6.45577C19.4112 6.16073 19.0108 6.00165 18.6 6H17C16.45 6 16 6.5625 16 7.25C16 7.9375 16.45 8.5 17 8.5H18.6L20.06 13.5H15.25L14.89 12.25H14.98C15.53 12.25 15.98 11.6875 15.98 11C15.98 10.3125 15.53 9.75 14.98 9.75H12C11.45 9.75 11 10.3125 11 11C11 11.6875 11.45 12.25 12 12.25H12.75L14.57 18.5H13.9C13.46 15.7125 11.59 13.65 9.25 13.5125C6.45 13.3375 4 16.25 4 19.75C4 23.25 6.2 26 9 26C11.46 26 13.45 23.8875 13.9 21H18.1C18.54 23.7875 20.41 25.85 22.75 25.9875C25.55 26.15 28 23.25 28 19.7375C28 16.25 25.8 13.5 23 13.5ZM10 21H11.82C11.4 22.5375 10.22 23.6 8.8 23.4875C7.31 23.375 6.07 21.8 6 19.925C5.93 17.7375 7.27 16 9 16C10.33 16 11.42 17.0375 11.82 18.5H10C9.45 18.5 9 19.0625 9 19.75C9 20.4375 9.45 21 10 21ZM18.1 18.5H16.7L15.97 16H19C18.56 16.725 18.24 17.5625 18.1 18.5ZM22.88 23.5C21.34 23.425 20.04 21.7875 20 19.85C19.98 18.65 20.39 17.6 21.05 16.9L21.67 19.025C21.86 19.675 22.43 20.0125 22.95 19.775C23.47 19.5375 23.74 18.825 23.55 18.175L22.92 16.0125L22.93 16C23.3309 15.9829 23.7305 16.0676 24.1045 16.2488C24.4785 16.4301 24.8193 16.7043 25.1062 17.0548C25.3932 17.4052 25.6203 17.8247 25.7739 18.288C25.9275 18.7512 26.0044 19.2486 26 19.75C26 21.9 24.62 23.575 22.88 23.5Z" fill="url(#paint0_linear_161_2474)"/>
</g>
<defs>
<linearGradient id="paint0_linear_161_2474" x1="16" y1="6" x2="16" y2="26" gradientUnits="userSpaceOnUse">
<stop stop-color="#FFB60D"/>
<stop offset="1" stop-color="#E59317"/>
</linearGradient>
<clipPath id="clip0_161_2474">
<rect width="32" height="32" fill="white"/>
</clipPath>
</defs>
</svg>
