<svg width="21" height="20" viewBox="0 0 21 20" fill="none" xmlns="http://www.w3.org/2000/svg">
<path d="M10.5004 1.66699C6.82535 1.66699 3.5 4.34999 3.5 8.49999C3.5 11.15 5.6441 14.267 9.92285 17.858C10.0845 17.9909 10.291 18.064 10.5045 18.064C10.7181 18.064 10.9246 17.9909 11.0862 17.858C15.3566 14.267 17.5007 11.15 17.5007 8.49999C17.5007 4.34999 14.1754 1.66699 10.5004 1.66699ZM10.5004 9.99999C9.5375 9.99999 8.75 9.24999 8.75 8.33299C8.75 7.41599 9.5375 6.66599 10.5004 6.66599C11.4632 6.66599 12.2507 7.41599 12.2507 8.33299C12.2507 9.24999 11.4632 9.99999 10.5004 9.99999Z" fill="url(#paint0_linear_128_743)"/>
<defs>
<linearGradient id="paint0_linear_128_743" x1="10.5003" y1="1.66699" x2="10.5003" y2="18.064" gradientUnits="userSpaceOnUse">
<stop stop-color="#FFBB00"/>
<stop offset="1" stop-color="#F2AA18"/>
</linearGradient>
</defs>
</svg>
