<svg width="19" height="18" viewBox="0 0 19 18" fill="none" xmlns="http://www.w3.org/2000/svg">
<path d="M9.49965 0.666992C4.6875 0.666992 0.75 4.41699 0.75 8.99999C0.75 13.583 4.6875 17.333 9.49965 17.333C14.3118 17.333 18.2493 13.583 18.2493 8.99999C18.2493 4.41699 14.3118 0.666992 9.49965 0.666992ZM12.6055 12.167L9.03555 10.075C8.90701 10.0019 8.80069 9.89814 8.72705 9.77399C8.6534 9.64985 8.61497 9.50958 8.61555 9.36699V5.45799C8.62015 5.29206 8.69206 5.13428 8.81617 5.01775C8.94029 4.90122 9.10697 4.835 9.28125 4.83299C9.45487 4.8343 9.621 4.90057 9.74377 5.0175C9.86655 5.13442 9.93613 5.29264 9.9375 5.45799V9.16599L13.2975 11.091C13.6125 11.275 13.7175 11.666 13.5243 11.967C13.4293 12.1084 13.2798 12.2087 13.1079 12.2461C12.936 12.2835 12.7556 12.2551 12.6055 12.167Z" fill="url(#paint0_linear_132_794)"/>
<defs>
<linearGradient id="paint0_linear_132_794" x1="9.49965" y1="0.666992" x2="9.49965" y2="17.333" gradientUnits="userSpaceOnUse">
<stop stop-color="#FFBB00"/>
<stop offset="1" stop-color="#F2AA18"/>
</linearGradient>
</defs>
</svg>
