<svg width="22" height="22" viewBox="0 0 22 22" fill="none" xmlns="http://www.w3.org/2000/svg">
<path d="M3.06701 5.73333C1.32138 7.47925 0.338513 9.84561 0.333515 12.3145C0.328518 14.7834 1.3018 17.1537 3.04034 18.9067C5.00034 14.3733 8.49367 10.5867 12.8537 8.33333C9.09043 11.5176 6.5501 15.9101 5.66701 20.76C9.13367 22.4 13.4003 21.8 16.267 18.9333C20.2537 14.9467 21.3737 4.08 21.6137 1.09333C21.622 0.998434 21.6095 0.902856 21.5769 0.813325C21.5444 0.723794 21.4926 0.642486 21.4252 0.575122C21.3579 0.507758 21.2765 0.455974 21.187 0.423415C21.0975 0.390856 21.0019 0.378313 20.907 0.386667C17.9203 0.626667 7.05367 1.74667 3.06701 5.73333Z" fill="url(#paint0_linear_118_442)"/>
<defs>
<linearGradient id="paint0_linear_118_442" x1="10.9748" y1="0.384155" x2="10.9748" y2="21.6592" gradientUnits="userSpaceOnUse">
<stop stop-color="#FFBB00"/>
<stop offset="1" stop-color="#F2AA18"/>
</linearGradient>
</defs>
</svg>
