<svg width="30" height="30" viewBox="0 0 30 30" fill="none" xmlns="http://www.w3.org/2000/svg">
<path d="M15.0002 9.66665C12.0535 9.66665 9.66683 12.0533 9.66683 15C9.66683 17.9466 12.0535 20.3333 15.0002 20.3333C17.9468 20.3333 20.3335 17.9466 20.3335 15C20.3335 12.0533 17.9468 9.66665 15.0002 9.66665ZM26.9202 13.6666C26.6181 10.9628 25.4057 8.44203 23.4819 6.51824C21.5581 4.59445 19.0373 3.382 16.3335 3.07998V1.66665C16.3335 0.933313 15.7335 0.333313 15.0002 0.333313C14.2668 0.333313 13.6668 0.933313 13.6668 1.66665V3.07998C10.963 3.382 8.44221 4.59445 6.51842 6.51824C4.59463 8.44203 3.38218 10.9628 3.08016 13.6666H1.66683C0.933496 13.6666 0.333496 14.2666 0.333496 15C0.333496 15.7333 0.933496 16.3333 1.66683 16.3333H3.08016C3.38218 19.0372 4.59463 21.5579 6.51842 23.4817C8.44221 25.4055 10.963 26.618 13.6668 26.92V28.3333C13.6668 29.0666 14.2668 29.6666 15.0002 29.6666C15.7335 29.6666 16.3335 29.0666 16.3335 28.3333V26.92C19.0373 26.618 21.5581 25.4055 23.4819 23.4817C25.4057 21.5579 26.6181 19.0372 26.9202 16.3333H28.3335C29.0668 16.3333 29.6668 15.7333 29.6668 15C29.6668 14.2666 29.0668 13.6666 28.3335 13.6666H26.9202ZM15.0002 24.3333C9.84016 24.3333 5.66683 20.16 5.66683 15C5.66683 9.83998 9.84016 5.66665 15.0002 5.66665C20.1602 5.66665 24.3335 9.83998 24.3335 15C24.3335 20.16 20.1602 24.3333 15.0002 24.3333Z" fill="url(#paint0_linear_119_468)"/>
<defs>
<linearGradient id="paint0_linear_119_468" x1="15.0002" y1="0.333313" x2="15.0002" y2="29.6666" gradientUnits="userSpaceOnUse">
<stop stop-color="#FFBB00"/>
<stop offset="1" stop-color="#F2AA18"/>
</linearGradient>
</defs>
</svg>
