<svg width="28" height="24" viewBox="0 0 28 24" fill="none" xmlns="http://www.w3.org/2000/svg">
<path d="M20.6665 18.6533C18.8665 18.6533 17.7332 19.2133 16.7332 19.7199C15.8665 20.1599 15.1598 20.5199 13.9998 20.5199C12.7998 20.5199 12.1332 20.1866 11.2665 19.7199C10.2665 19.2133 9.17317 18.6533 7.33317 18.6533C5.49317 18.6533 4.39984 19.2133 3.39984 19.7199C2.8265 20.0133 2.31984 20.2666 1.7065 20.4133C1.1065 20.5466 0.666504 21.0266 0.666504 21.6266V21.7599C0.666504 22.5599 1.41317 23.1333 2.1865 22.9733C3.17317 22.7733 3.91984 22.3999 4.59984 22.0533C5.4665 21.6133 6.15984 21.2533 7.33317 21.2533C8.5065 21.2533 9.19984 21.5866 10.0665 22.0533C11.0665 22.5599 12.1598 23.1199 13.9998 23.1199C15.8398 23.1199 16.9332 22.5599 17.9332 22.0533C18.7998 21.6133 19.5065 21.2533 20.6665 21.2533C21.8665 21.2533 22.5332 21.5866 23.3998 22.0533C24.0932 22.3999 24.8398 22.7866 25.8398 22.9866C26.02 23.0218 26.2056 23.0169 26.3837 22.9725C26.5617 22.928 26.7279 22.845 26.8703 22.7292C27.0127 22.6135 27.128 22.4679 27.208 22.3027C27.288 22.1375 27.3307 21.9568 27.3332 21.7733V21.6533C27.3332 21.0399 26.8798 20.5599 26.2798 20.4266C25.6665 20.2933 25.1732 20.0399 24.5998 19.7333C23.5998 19.2133 22.4665 18.6533 20.6665 18.6533ZM20.6665 12.7199C18.8665 12.7199 17.7332 13.2933 16.7332 13.7866C15.8665 14.2133 15.1598 14.5866 13.9998 14.5866C12.7998 14.5866 12.1332 14.2533 11.2665 13.7866C10.2665 13.2799 9.17317 12.7199 7.33317 12.7199C5.49317 12.7199 4.39984 13.2933 3.39984 13.7866C2.8265 14.0666 2.31984 14.3333 1.69317 14.4799C1.1065 14.6133 0.666504 15.0933 0.666504 15.6933V15.8266C0.66658 16.0109 0.707734 16.1929 0.786971 16.3592C0.866209 16.5256 0.981538 16.6723 1.12457 16.7885C1.2676 16.9047 1.43474 16.9876 1.61382 17.0311C1.7929 17.0746 1.97943 17.0776 2.15984 17.0399C3.15984 16.8399 3.9065 16.4533 4.59984 16.1199C5.4665 15.6533 6.13317 15.3199 7.33317 15.3199C8.53317 15.3199 9.19984 15.6533 10.0665 16.1199C11.0665 16.6266 12.1598 17.1866 13.9998 17.1866C15.8398 17.1866 16.9332 16.6133 17.9332 16.1199C18.7998 15.6533 19.4665 15.3199 20.6665 15.3199C21.8665 15.3199 22.5332 15.6533 23.3998 16.1199C24.0932 16.4666 24.8398 16.8533 25.8398 17.0533C26.0211 17.0886 26.2079 17.0835 26.3869 17.0383C26.5659 16.993 26.7327 16.9088 26.8754 16.7916C27.0181 16.6744 27.1331 16.5271 27.2122 16.3603C27.2914 16.1935 27.3327 16.0113 27.3332 15.8266V15.7066C27.3332 15.0933 26.8798 14.6133 26.2798 14.4799C25.6665 14.3466 25.1732 14.0933 24.5998 13.7866C23.5998 13.2799 22.4665 12.7199 20.6665 12.7199ZM24.5998 1.94661C23.5998 1.43994 22.4932 0.879944 20.6665 0.879944C18.8398 0.879944 17.7332 1.43994 16.7332 1.94661C15.8665 2.37328 15.1598 2.74661 13.9998 2.74661C12.7998 2.74661 12.1332 2.41328 11.2665 1.94661C10.2665 1.45328 9.17317 0.879944 7.33317 0.879944C5.49317 0.879944 4.39984 1.43994 3.39984 1.94661C2.8265 2.23994 2.31984 2.49328 1.7065 2.63994C1.1065 2.77328 0.666504 3.25328 0.666504 3.85328V3.94661C0.666504 4.74661 1.3865 5.33328 2.15984 5.17328C3.15984 4.97328 3.9065 4.58661 4.59984 4.25328C5.4665 3.81328 6.15984 3.45328 7.33317 3.45328C8.5065 3.45328 9.19984 3.78661 10.0665 4.25328C11.0665 4.75994 12.1598 5.31994 13.9998 5.31994C15.8398 5.31994 16.9332 4.74661 17.9332 4.25328C18.7998 3.82661 19.5065 3.45328 20.6665 3.45328C21.8665 3.45328 22.5332 3.78661 23.3998 4.25328C24.0932 4.59994 24.8398 4.98661 25.8398 5.18661C26.0211 5.22197 26.2079 5.21685 26.3869 5.17161C26.5659 5.12638 26.7327 5.04215 26.8754 4.92495C27.0181 4.80776 27.1331 4.66048 27.2122 4.49366C27.2914 4.32683 27.3327 4.14458 27.3332 3.95994V3.83994C27.3332 3.22661 26.8798 2.74661 26.2798 2.61328C25.6665 2.47994 25.1732 2.23994 24.5998 1.94661ZM20.6665 6.78661C18.8665 6.78661 17.7332 7.35994 16.7332 7.85328C15.8665 8.31994 15.1998 8.65328 13.9998 8.65328C12.7998 8.65328 12.1332 8.31994 11.2665 7.85328C10.2665 7.34661 9.17317 6.78661 7.33317 6.78661C5.49317 6.78661 4.39984 7.35994 3.39984 7.85328C2.8265 8.15994 2.33317 8.41328 1.71984 8.54661C1.11984 8.67994 0.666504 9.15994 0.666504 9.77328V9.89328C0.66658 10.0776 0.707734 10.2595 0.786971 10.4259C0.866209 10.5923 0.981538 10.7389 1.12457 10.8551C1.2676 10.9714 1.43474 11.0542 1.61382 11.0977C1.7929 11.1412 1.97943 11.1443 2.15984 11.1066C3.15984 10.9066 3.9065 10.5199 4.59984 10.1866C5.4665 9.75994 6.17317 9.38661 7.33317 9.38661C8.49317 9.38661 9.19984 9.71994 10.0665 10.1866C11.0665 10.6933 12.1598 11.2533 13.9998 11.2533C15.8398 11.2533 16.9332 10.6799 17.9332 10.1866C18.7998 9.75994 19.5065 9.38661 20.6665 9.38661C21.8665 9.38661 22.5332 9.71994 23.3998 10.1866C24.0932 10.5333 24.8398 10.9199 25.8398 11.1199C26.02 11.1551 26.2056 11.1503 26.3837 11.1058C26.5617 11.0613 26.7279 10.9783 26.8703 10.8626C27.0127 10.7468 27.128 10.6012 27.208 10.436C27.288 10.2709 27.3307 10.0901 27.3332 9.90661V9.78661C27.3332 9.17328 26.8798 8.69328 26.2798 8.55994C25.6665 8.42661 25.1732 8.17328 24.5998 7.86661C23.5998 7.34661 22.4665 6.78661 20.6665 6.78661Z" fill="url(#paint0_linear_119_466)"/>
<defs>
<linearGradient id="paint0_linear_119_466" x1="13.9998" y1="0.879944" x2="13.9998" y2="23.1199" gradientUnits="userSpaceOnUse">
<stop stop-color="#FFBB00"/>
<stop offset="1" stop-color="#F2AA18"/>
</linearGradient>
</defs>
</svg>
