<svg width="15" height="14" viewBox="0 0 15 14" fill="none" xmlns="http://www.w3.org/2000/svg">
<path d="M13.53 9.54748L11.4088 9.32116C11.1595 9.29389 10.9069 9.3197 10.6698 9.39664C10.4328 9.47358 10.2174 9.59965 10.0401 9.76538L8.50301 11.199C6.13297 10.0739 4.20655 8.27589 3.00102 6.06385L4.5451 4.62177C4.90482 4.28697 5.08017 3.81937 5.02105 3.34335L4.77957 1.37942C4.73211 0.999179 4.5365 0.648498 4.22998 0.394137C3.92345 0.139775 3.52741 -0.000504291 3.11725 1.36225e-06H1.67337C0.729485 1.36225e-06 -0.0550814 0.733199 0.00303463 1.61322C0.445919 8.26906 6.1483 13.5838 13.2715 13.9972C14.2144 14.0514 15 13.3191 15 12.4382V11.0906C15.0021 10.7094 14.8531 10.341 14.5818 10.0562C14.3104 9.77133 13.9358 9.59015 13.53 9.54748Z" fill="url(#paint0_linear_128_746)"/>
<defs>
<linearGradient id="paint0_linear_128_746" x1="7.5" y1="0" x2="7.5" y2="14" gradientUnits="userSpaceOnUse">
<stop stop-color="#FFBB00"/>
<stop offset="1" stop-color="#F2AA18"/>
</linearGradient>
</defs>
</svg>
