<svg width="17" height="13" viewBox="0 0 17 13" fill="none" xmlns="http://www.w3.org/2000/svg">
<path d="M15.3006 0H1.69939C0.76503 0 0.00816022 0.731214 0.00816022 1.62524L0 11.3748C0 12.2688 0.76503 13 1.69939 13H15.3006C16.235 13 17 12.2688 17 11.3748V1.62524C17 0.731214 16.235 0 15.3006 0ZM14.9599 3.45328L8.95086 7.045C8.81529 7.12478 8.65921 7.16703 8.5 7.16703C8.34079 7.16703 8.18471 7.12478 8.04914 7.045L2.04008 3.45328C1.95603 3.40697 1.88261 3.34496 1.82419 3.27094C1.76577 3.19692 1.72355 3.1124 1.70005 3.02244C1.67655 2.93248 1.67226 2.83892 1.68742 2.74734C1.70259 2.65575 1.7369 2.56803 1.78832 2.4894C1.83973 2.41078 1.90719 2.34286 1.98668 2.2897C2.06616 2.23653 2.15603 2.19922 2.25093 2.17999C2.34583 2.16076 2.44381 2.16 2.53903 2.17775C2.63424 2.19551 2.72474 2.23142 2.80511 2.28334L8.5 5.68787L14.1949 2.28334C14.2753 2.23142 14.3658 2.19551 14.461 2.17775C14.5562 2.16 14.6542 2.16076 14.7491 2.17999C14.844 2.19922 14.9338 2.23653 15.0133 2.2897C15.0928 2.34286 15.1603 2.41078 15.2117 2.4894C15.2631 2.56803 15.2974 2.65575 15.3126 2.74734C15.3277 2.83892 15.3234 2.93248 15.3 3.02244C15.2765 3.1124 15.2342 3.19692 15.1758 3.27094C15.1174 3.34496 15.044 3.40697 14.9599 3.45328Z" fill="url(#paint0_linear_128_740)"/>
<defs>
<linearGradient id="paint0_linear_128_740" x1="8.5" y1="0" x2="8.5" y2="13" gradientUnits="userSpaceOnUse">
<stop stop-color="#FFBB00"/>
<stop offset="1" stop-color="#F2AA18"/>
</linearGradient>
</defs>
</svg>
