<svg width="32" height="32" viewBox="0 0 32 32" fill="none" xmlns="http://www.w3.org/2000/svg">
<path d="M25.9468 13.3333C25.8152 13.5277 25.7373 13.7534 25.7209 13.9875C25.7046 14.2216 25.7503 14.4559 25.8534 14.6667C26.1841 15.4387 26.4174 16.2493 26.5468 17.08C26.89 19.2269 26.569 21.4273 25.6268 23.3867C25.5123 23.6016 25.3412 23.7811 25.132 23.9056C24.9229 24.0302 24.6836 24.0951 24.4401 24.0933H7.57342C7.32858 24.0938 7.08833 24.0269 6.87901 23.8999C6.66969 23.7729 6.49938 23.5907 6.38675 23.3733C5.53326 21.6419 5.16561 19.7113 5.323 17.7874C5.48039 15.8635 6.15691 14.0183 7.28046 12.4487C8.40401 10.879 9.93245 9.64362 11.7029 8.87426C13.4733 8.1049 15.4193 7.8304 17.3334 8.08C18.3019 8.19384 19.2493 8.44526 20.1468 8.82667C20.3575 8.92983 20.5918 8.97553 20.826 8.95914C21.0601 8.94275 21.2857 8.86486 21.4801 8.73334C21.6826 8.59993 21.8449 8.41382 21.9495 8.19504C22.0541 7.97626 22.097 7.73309 22.0737 7.49172C22.0504 7.25034 21.9617 7.01989 21.8172 6.82518C21.6726 6.63046 21.4777 6.47886 21.2534 6.38667C18.6777 5.28221 15.8194 5.01745 13.0846 5.63C10.3498 6.24255 7.87761 7.70126 6.01909 9.79891C4.16058 11.8966 3.01029 14.5265 2.73162 17.3152C2.45295 20.1038 3.06008 22.9094 4.46675 25.3333C4.69943 25.7364 5.03354 26.0715 5.43586 26.3054C5.83818 26.5393 6.29472 26.6639 6.76009 26.6667H25.2268C25.6966 26.6685 26.1587 26.5462 26.5661 26.3121C26.9735 26.0779 27.3118 25.7403 27.5468 25.3333C28.5766 23.5486 29.1788 21.5494 29.306 19.4928C29.4332 17.4362 29.0821 15.3781 28.2801 13.48C28.1785 13.2637 28.0207 13.0786 27.823 12.9442C27.6254 12.8098 27.3953 12.731 27.1568 12.716C26.9183 12.701 26.6802 12.7504 26.4673 12.859C26.2544 12.9676 26.0746 13.1314 25.9468 13.3333Z" fill="url(#paint0_linear_118_443)"/>
<path d="M14.1199 16.7867C13.6195 17.287 13.3384 17.9657 13.3384 18.6733C13.3384 19.0237 13.4074 19.3707 13.5415 19.6944C13.6756 20.0181 13.8721 20.3122 14.1199 20.56C14.3676 20.8077 14.6618 21.0043 14.9855 21.1384C15.3092 21.2725 15.6561 21.3415 16.0065 21.3415C16.7142 21.3415 17.3928 21.0604 17.8932 20.56L25.4399 9.23999L14.1199 16.7867Z" fill="url(#paint1_linear_118_443)"/>
<defs>
<linearGradient id="paint0_linear_118_443" x1="15.9985" y1="5.30762" x2="15.9985" y2="26.6667" gradientUnits="userSpaceOnUse">
<stop stop-color="#FFBB00"/>
<stop offset="1" stop-color="#F2AA18"/>
</linearGradient>
<linearGradient id="paint1_linear_118_443" x1="19.3891" y1="9.23999" x2="19.3891" y2="21.3415" gradientUnits="userSpaceOnUse">
<stop stop-color="#FFBB00"/>
<stop offset="1" stop-color="#F2AA18"/>
</linearGradient>
</defs>
</svg>
