<svg width="134" height="32" viewBox="0 0 134 32" fill="none" xmlns="http://www.w3.org/2000/svg">
<path d="M5.04 12.4149C5.688 11.3672 6.576 10.5159 7.704 9.86108C8.856 9.20625 10.164 8.87884 11.628 8.87884C13.332 8.87884 14.868 9.33722 16.236 10.254C17.628 11.1707 18.72 12.4804 19.512 14.1829C20.328 15.8593 20.736 17.8107 20.736 20.0371C20.736 22.2635 20.328 24.241 19.512 25.9698C18.72 27.6723 17.628 28.9951 16.236 29.938C14.868 30.881 13.332 31.3524 11.628 31.3524C10.14 31.3524 8.832 31.0381 7.704 30.4095C6.6 29.7547 5.712 28.9165 5.04 27.895V30.9988H0V1.9246H5.04V12.4149ZM15.588 20.0371C15.588 18.7274 15.336 17.6011 14.832 16.6582C14.352 15.689 13.704 14.9556 12.888 14.4579C12.1004 13.9615 11.2055 13.7038 10.296 13.7114C9.384 13.7114 8.52 13.9734 7.704 14.4972C6.912 14.9949 6.264 15.7283 5.76 16.6975C5.28 17.6666 5.04 18.806 5.04 20.1156C5.04 21.4253 5.28 22.5647 5.76 23.5338C6.264 24.503 6.912 25.2495 7.704 25.7733C8.52 26.271 9.384 26.5198 10.296 26.5198C11.232 26.5198 12.096 26.2579 12.888 25.734C13.704 25.2102 14.352 24.4637 14.832 23.4945C15.336 22.5254 15.588 21.3729 15.588 20.0371ZM26.954 6.63934C26.066 6.63934 25.322 6.33812 24.722 5.73568C24.146 5.10705 23.858 4.33436 23.858 3.4176C23.858 2.50085 24.146 1.74125 24.722 1.13881C25.322 0.510178 26.066 0.195862 26.954 0.195862C27.842 0.195862 28.574 0.510178 29.15 1.13881C29.75 1.74125 30.05 2.50085 30.05 3.4176C30.05 4.33436 29.75 5.10705 29.15 5.73568C28.574 6.33812 27.842 6.63934 26.954 6.63934ZM29.438 9.23245V30.9988H24.398V9.23245H29.438ZM46.226 30.9988L39.458 21.7265V30.9988H34.418V1.9246H39.458V18.4655L46.154 9.23245H52.706L43.922 20.1549L52.778 30.9988H46.226ZM53.145 20.1156C53.145 17.863 53.565 15.8986 54.405 14.2222C55.245 12.5197 56.409 11.21 57.897 10.2933C59.385 9.35031 61.089 8.87884 63.009 8.87884C65.481 8.87884 67.521 9.55986 69.129 10.9219C70.761 12.2577 71.853 14.1436 72.405 16.5796H66.97C66.682 15.6366 66.19 14.9032 65.494 14.3794C64.822 13.8293 63.982 13.5543 62.974 13.5543C61.534 13.5543 60.394 14.1305 59.554 15.283C58.714 16.4093 58.294 18.0202 58.294 20.1156C58.294 22.1849 58.714 23.7958 59.554 24.9482C60.394 26.0745 61.534 26.6377 62.974 26.6377C65.014 26.6377 66.346 25.6424 66.97 23.6517H72.406C71.854 26.0091 70.762 27.8819 69.13 29.2701C67.498 30.6583 65.458 31.3524 63.01 31.3524C61.09 31.3524 59.386 30.8941 57.898 29.9773C56.4218 29.0477 55.2125 27.687 54.406 26.0483C53.566 24.3458 53.145 22.3682 53.145 20.1156ZM80.138 12.6113C80.756 11.491 81.6227 10.5587 82.658 9.90037C83.714 9.24554 84.914 8.91813 86.258 8.91813V14.6937H84.926C83.342 14.6937 82.142 15.0997 81.326 15.9117C80.534 16.7236 80.138 18.1381 80.138 20.1549V30.9988H75.098V9.23245H80.138V12.6113ZM101.712 27.895C101.16 28.8903 100.26 29.7285 99.012 30.4095C97.764 31.0643 96.42 31.3917 94.98 31.3917C93.732 31.3917 92.604 31.1167 91.596 30.5666C90.588 30.0166 89.796 29.257 89.22 28.2879C88.644 27.3187 88.356 26.2055 88.356 24.9482C88.356 22.9314 89.04 21.2812 90.408 19.9978C91.8 18.7143 93.876 18.0726 96.636 18.0726H101.712C101.664 16.6844 101.292 15.5842 100.596 14.7723C99.924 13.9341 98.988 13.515 97.788 13.515C96.732 13.515 95.856 13.8293 95.16 14.4579C94.464 15.0604 94.02 15.9117 93.828 17.0118H88.788C89.028 15.4402 89.544 14.0389 90.336 12.8078C91.1449 11.5571 92.2362 10.5555 93.504 9.90037C94.824 9.19316 96.3 8.83955 97.932 8.83955C99.612 8.83955 101.124 9.21935 102.468 9.97895C103.803 10.7046 104.916 11.8374 105.672 13.24C106.44 14.6544 106.824 16.3177 106.824 18.2297V30.9988H101.712V27.895ZM96.456 26.952C97.296 26.952 98.112 26.7556 98.904 26.3627C99.72 25.9698 100.392 25.3804 100.92 24.5946C101.448 23.8088 101.712 22.879 101.712 21.8051V21.6479H96.924C95.772 21.6479 94.908 21.8968 94.332 22.3944C93.78 22.8921 93.504 23.5469 93.504 24.3589C93.504 25.1447 93.756 25.7733 94.26 26.2448C94.788 26.7163 95.52 26.952 96.456 26.952ZM117.453 13.7507V30.9988H112.341V13.7507H110.073V9.23245H112.341V8.13234C112.341 5.46065 113.037 3.49618 114.429 2.23892C115.821 0.981652 117.921 0.392309 120.729 0.470888V5.10705C119.505 5.08086 118.653 5.3035 118.173 5.77497C117.693 6.24644 117.453 7.09772 117.453 8.32879V9.23245H124.003V3.84978H129.079V9.23245H133.543V13.7507H129.079V24.2803C129.079 25.0137 129.235 25.5507 129.547 25.8912C129.883 26.2055 130.435 26.3627 131.203 26.3627H133.543V30.9988H130.375C126.127 30.9988 124.003 28.7462 124.003 24.241V13.7507H117.453Z" fill="white"/>
</svg>
