<svg width="66" height="65" fill="none" xmlns="http://www.w3.org/2000/svg"><path d="M14.81 60.877a2 2 0 1 0-.027 4 2 2 0 0 0 .028-4ZM2.811 60.796a2 2 0 1 0-.027 4 2 2 0 0 0 .027-4ZM38.891 49.04a2 2 0 1 0-.027 4 2 2 0 0 0 .027-4ZM26.892 48.959a2 2 0 1 0-.028 4 2 2 0 0 0 .028-4ZM14.892 48.878a2 2 0 1 0-.027 4 2 2 0 0 0 .027-4ZM2.892 48.797a2 2 0 1 0-.027 4 2 2 0 0 0 .027-4ZM50.972 37.122a2 2 0 1 0-.027 4 2 2 0 0 0 .027-4ZM38.973 37.04a2 2 0 1 0-.028 4 2 2 0 0 0 .028-4ZM26.973 36.96a2 2 0 1 0-.027 4 2 2 0 0 0 .027-4ZM14.973 36.878a2 2 0 1 0-.027 4 2 2 0 0 0 .027-4ZM2.973 36.797a2 2 0 1 0-.027 4 2 2 0 0 0 .027-4ZM51.053 25.122a2 2 0 1 0-.027 4 2 2 0 0 0 .027-4ZM39.054 25.04a2 2 0 1 0-.027 4 2 2 0 0 0 .027-4ZM27.054 24.96a2 2 0 1 0-.027 4 2 2 0 0 0 .027-4ZM15.054 24.878a2 2 0 1 0-.027 4 2 2 0 0 0 .027-4ZM3.055 24.797a2 2 0 1 0-.028 4 2 2 0 0 0 .028-4ZM63.135 13.204a2 2 0 1 0-.028 4 2 2 0 0 0 .028-4ZM51.135 13.122a2 2 0 1 0-.027 4 2 2 0 0 0 .027-4ZM39.135 13.041a2 2 0 1 0-.027 4 2 2 0 0 0 .027-4ZM27.135 12.96a2 2 0 1 0-.027 4 2 2 0 0 0 .027-4ZM15.136 12.879a2 2 0 1 0-.028 4 2 2 0 0 0 .028-4ZM3.136 12.797a2 2 0 1 0-.027 4 2 2 0 0 0 .027-4ZM63.216 1.204a2 2 0 1 0-.027 4 2 2 0 0 0 .027-4ZM51.216 1.123a2 2 0 1 0-.027 4 2 2 0 0 0 .027-4ZM39.216 1.041a2 2 0 1 0-.027 4 2 2 0 0 0 .027-4ZM27.216.96a2 2 0 1 0-.026 4 2 2 0 0 0 .026-4ZM15.217.879a2 2 0 1 0-.027 4 2 2 0 0 0 .027-4ZM3.217.798a2 2 0 1 0-.027 4 2 2 0 0 0 .027-4Z" fill="#E4A30B"/></svg>