<svg width="64" height="64" fill="none" xmlns="http://www.w3.org/2000/svg"><path d="M4 50a2 2 0 1 1-4 0 2 2 0 0 1 4 0ZM4 62a2 2 0 1 1-4 0 2 2 0 0 1 4 0ZM16 26a2 2 0 1 1-4 0 2 2 0 0 1 4 0ZM16 38a2 2 0 1 1-4 0 2 2 0 0 1 4 0ZM16 50a2 2 0 1 1-4 0 2 2 0 0 1 4 0ZM16 62a2 2 0 1 1-4 0 2 2 0 0 1 4 0ZM28 14a2 2 0 1 1-4 0 2 2 0 0 1 4 0ZM28 26a2 2 0 1 1-4 0 2 2 0 0 1 4 0ZM28 38a2 2 0 1 1-4 0 2 2 0 0 1 4 0ZM28 50a2 2 0 1 1-4 0 2 2 0 0 1 4 0ZM28 62a2 2 0 1 1-4 0 2 2 0 0 1 4 0ZM40 14a2 2 0 1 1-4 0 2 2 0 0 1 4 0ZM40 26a2 2 0 1 1-4 0 2 2 0 0 1 4 0ZM40 38a2 2 0 1 1-4 0 2 2 0 0 1 4 0ZM40 50a2 2 0 1 1-4 0 2 2 0 0 1 4 0ZM40 62a2 2 0 1 1-4 0 2 2 0 0 1 4 0ZM52 2a2 2 0 1 1-4 0 2 2 0 0 1 4 0ZM52 14a2 2 0 1 1-4 0 2 2 0 0 1 4 0ZM52 26a2 2 0 1 1-4 0 2 2 0 0 1 4 0ZM52 38a2 2 0 1 1-4 0 2 2 0 0 1 4 0ZM52 50a2 2 0 1 1-4 0 2 2 0 0 1 4 0ZM52 62a2 2 0 1 1-4 0 2 2 0 0 1 4 0ZM64 2a2 2 0 1 1-4 0 2 2 0 0 1 4 0ZM64 14a2 2 0 1 1-4 0 2 2 0 0 1 4 0ZM64 26a2 2 0 1 1-4 0 2 2 0 0 1 4 0ZM64 38a2 2 0 1 1-4 0 2 2 0 0 1 4 0ZM64 50a2 2 0 1 1-4 0 2 2 0 0 1 4 0ZM64 62a2 2 0 1 1-4 0 2 2 0 0 1 4 0Z" fill="#E4A30B"/></svg>