<svg width="152" height="39" viewBox="0 0 152 39" fill="none" xmlns="http://www.w3.org/2000/svg">
<path fill-rule="evenodd" clip-rule="evenodd" d="M23.024 11.8501H25.741C28.549 11.8501 30.066 15.1421 28.237 17.2751L25.577 20.3751C25.8651 22.2137 26.836 23.876 28.296 25.0301C29.7574 26.1848 31.6 26.7468 33.457 26.6041C35.3141 26.4614 37.0492 25.6245 38.317 24.2601C39.5838 22.8962 40.2891 21.1045 40.292 19.2431C40.2918 18.9193 40.3554 18.5986 40.4792 18.2994C40.6031 18.0002 40.7848 17.7284 41.0138 17.4995C41.2429 17.2706 41.5149 17.0892 41.8142 16.9655C42.1135 16.8419 42.4342 16.7786 42.758 16.7791C43.4117 16.7794 44.0386 17.0389 44.5011 17.5009C44.9636 17.9628 45.224 18.5894 45.225 19.2431C45.2248 21.829 44.4103 24.3492 42.897 26.4461C41.764 28.0129 40.2789 29.2917 38.5612 30.1796C36.8436 31.0674 34.9414 31.5395 33.008 31.5578C31.0745 31.5761 29.1638 31.1401 27.4297 30.2849C25.6956 29.4297 24.1865 28.1792 23.024 26.6341C21.8616 28.1792 20.3525 29.4297 18.6184 30.2849C16.8842 31.1401 14.9735 31.5761 13.0401 31.5578C11.1066 31.5395 9.20446 31.0674 7.48682 30.1796C5.76919 29.2917 4.28405 28.0129 3.15102 26.4461C1.63737 24.3493 0.822497 21.8291 0.822022 19.2431C0.821759 18.9192 0.885411 18.5984 1.00933 18.2992C1.13325 17.9999 1.31501 17.728 1.54418 17.4991C1.77336 17.2702 2.04545 17.0888 2.34486 16.9653C2.64427 16.8417 2.96512 16.7784 3.28902 16.7791C3.94271 16.7794 4.56959 17.0389 5.0321 17.5009C5.49461 17.9628 5.75496 18.5894 5.75602 19.2431C5.75325 21.1075 6.45555 22.9039 7.72202 24.2721C8.66766 25.2935 9.88206 26.0276 11.2259 26.3903C12.5698 26.753 13.9886 26.7295 15.3198 26.3226C16.6509 25.9156 17.8403 25.1417 18.7516 24.0895C19.6629 23.0374 20.2592 21.7497 20.472 20.3741L17.81 17.2741C15.982 15.1421 17.498 11.8511 20.31 11.8511L23.024 11.8501Z" fill="#9C9C9C"/>
<path d="M31.957 10.2801C32.6046 10.2806 33.2459 10.1535 33.8444 9.90614C34.4429 9.65874 34.9867 9.29587 35.4449 8.83823C35.9031 8.3806 36.2666 7.83718 36.5148 7.23901C36.7629 6.64085 36.8907 5.99966 36.891 5.35207C36.8907 4.70449 36.7629 4.0633 36.5148 3.46513C36.2666 2.86697 35.9031 2.32355 35.4449 1.86592C34.9867 1.40828 34.4429 1.0454 33.8444 0.798008C33.2459 0.550613 32.6046 0.423548 31.957 0.424074C31.3095 0.42368 30.6683 0.550841 30.0699 0.798295C29.4716 1.04575 28.9278 1.40865 28.4697 1.86627C28.0116 2.32389 27.6482 2.86727 27.4001 3.46537C27.1521 4.06347 27.0243 4.70457 27.024 5.35207C27.0243 5.99958 27.1521 6.64068 27.4001 7.23878C27.6482 7.83688 28.0116 8.38026 28.4697 8.83788C28.9278 9.2955 29.4716 9.6584 30.0699 9.90585C30.6683 10.1533 31.3095 10.2805 31.957 10.2801ZM8.934 10.2801C9.5815 10.2805 10.2227 10.1533 10.8211 9.90585C11.4194 9.6584 11.9632 9.2955 12.4213 8.83788C12.8794 8.38026 13.2428 7.83688 13.4909 7.23878C13.7389 6.64068 13.8667 5.99958 13.867 5.35207C13.8667 4.70457 13.7389 4.06347 13.4909 3.46537C13.2428 2.86727 12.8794 2.32389 12.4213 1.86627C11.9632 1.40865 11.4194 1.04575 10.8211 0.798295C10.2227 0.550841 9.5815 0.42368 8.934 0.424074C8.28642 0.423548 7.64507 0.550613 7.0466 0.798008C6.44814 1.0454 5.90428 1.40828 5.44608 1.86592C4.98789 2.32355 4.62435 2.86697 4.37623 3.46513C4.12811 4.0633 4.00026 4.70449 4 5.35207C4.00026 5.99966 4.12811 6.64085 4.37623 7.23901C4.62435 7.83718 4.98789 8.3806 5.44608 8.83823C5.90428 9.29587 6.44814 9.65874 7.0466 9.90614C7.64507 10.1535 8.28642 10.2806 8.934 10.2801ZM76.867 1.62807C77.627 1.62807 78.251 1.84507 78.739 2.27907C79.227 2.71307 79.471 3.28307 79.471 3.98907V28.3241C79.471 29.0571 79.241 29.6401 78.779 30.0741C78.319 30.5081 77.708 30.7251 76.949 30.7251C76.189 30.7251 75.579 30.5081 75.117 30.0751C74.656 29.6401 74.425 29.0571 74.425 28.3251V27.3071C73.828 28.4191 72.96 29.2871 71.82 29.9111C70.708 30.5351 69.433 30.8471 67.995 30.8471C66.285 30.8471 64.753 30.4131 63.397 29.5451C62.067 28.6771 61.023 27.4561 60.263 25.8821C59.53 24.2821 59.164 22.4511 59.164 20.3891C59.164 18.3271 59.53 16.5231 60.263 14.9761C61.023 13.4301 62.067 12.2361 63.397 11.3951C64.726 10.5541 66.259 10.1331 67.995 10.1331C69.433 10.1331 70.708 10.4321 71.821 11.0291C72.9055 11.5989 73.7972 12.4767 74.384 13.5521V3.90707C74.384 3.22907 74.601 2.68607 75.035 2.27907C75.497 1.84507 76.107 1.62807 76.867 1.62807ZM69.338 26.9001C70.966 26.9001 72.214 26.3441 73.082 25.2311C73.977 24.1191 74.425 22.5311 74.425 20.4701C74.425 18.4081 73.977 16.8341 73.082 15.7501C72.214 14.6371 70.98 14.0801 69.379 14.0801C67.751 14.0801 66.489 14.6231 65.594 15.7091C64.699 16.7941 64.251 18.3541 64.251 20.3891C64.251 22.4511 64.699 24.0511 65.594 25.1911C66.489 26.3311 67.737 26.9001 69.338 26.9001ZM93.779 30.8471C91.745 30.8471 89.954 30.4271 88.408 29.5861C86.888 28.7451 85.708 27.5381 84.867 25.9641C84.026 24.3901 83.605 22.5591 83.605 20.4701C83.605 18.3811 84.025 16.5631 84.867 15.0171C85.708 13.4431 86.888 12.2361 88.407 11.3951C89.954 10.5541 91.745 10.1331 93.779 10.1331C95.814 10.1331 97.591 10.5531 99.11 11.3951C100.633 12.2117 101.869 13.4759 102.651 15.0171C103.492 16.5631 103.913 18.3811 103.913 20.4701C103.913 22.5601 103.492 24.3901 102.651 25.9641C101.869 27.5052 100.633 28.7694 99.11 29.5861C97.591 30.4261 95.813 30.8471 93.779 30.8471ZM93.739 26.9001C95.394 26.9001 96.655 26.3571 97.523 25.2721C98.392 24.1871 98.826 22.5861 98.826 20.4701C98.826 18.3811 98.392 16.7941 97.523 15.7091C96.655 14.5961 95.407 14.0401 93.779 14.0401C92.152 14.0401 90.889 14.5961 89.995 15.7091C89.127 16.7941 88.692 18.3811 88.692 20.4701C88.692 22.5861 89.126 24.1871 89.995 25.2721C90.863 26.3571 92.111 26.9001 93.739 26.9001ZM124.96 10.2151C125.72 10.2151 126.33 10.4321 126.791 10.8651C127.253 11.3001 127.483 11.8831 127.483 12.6151V28.6901C127.483 31.8101 126.615 34.1701 124.879 35.7721C123.142 37.3721 120.579 38.1721 117.187 38.1721C114.23 38.1721 111.761 37.6171 109.781 36.5041C108.777 35.9071 108.275 35.1881 108.275 34.3471C108.275 33.7501 108.411 33.2761 108.682 32.9231C108.98 32.5701 109.36 32.3931 109.821 32.3931C110.066 32.3931 110.364 32.4481 110.717 32.5571C111.069 32.6921 111.436 32.8421 111.815 33.0041C112.665 33.3656 113.534 33.6781 114.42 33.9401C115.207 34.1571 116.102 34.2661 117.106 34.2661C120.66 34.2661 122.437 32.5301 122.437 29.0561V26.4521C121.84 27.5651 120.972 28.4321 119.833 29.0571C118.693 29.6541 117.391 29.9521 115.926 29.9521C114.189 29.9521 112.643 29.5451 111.286 28.7321C109.957 27.8901 108.913 26.7241 108.153 25.2321C107.393 23.7391 107.013 22.0171 107.013 20.0631C107.013 18.1101 107.38 16.3871 108.112 14.8951C108.872 13.3751 109.93 12.2091 111.286 11.3951C112.643 10.5541 114.189 10.1331 115.926 10.1331C117.391 10.1331 118.693 10.4451 119.833 11.0691C120.943 11.6373 121.852 12.5322 122.437 13.6331V12.5751C122.437 11.8701 122.668 11.3001 123.129 10.8651C123.59 10.4321 124.201 10.2151 124.96 10.2151ZM117.269 26.0051C118.897 26.0051 120.158 25.4751 121.053 24.4181C121.976 23.3591 122.437 21.9081 122.437 20.0631C122.437 18.1911 121.976 16.7261 121.053 15.6681C120.158 14.6101 118.897 14.0811 117.269 14.0811C115.668 14.0811 114.406 14.6101 113.484 15.6681C112.562 16.7261 112.1 18.1911 112.1 20.0631C112.1 21.9081 112.562 23.3591 113.484 24.4181C114.406 25.4761 115.668 26.0051 117.269 26.0051ZM139.955 30.8471C136.998 30.8471 134.611 30.2641 132.793 29.0971C131.925 28.5821 131.491 27.8491 131.491 26.9001C131.491 26.3571 131.64 25.9231 131.938 25.5981C132.237 25.2451 132.603 25.0681 133.037 25.0681C133.498 25.0681 134.136 25.2861 134.95 25.7201C135.818 26.1271 136.605 26.4391 137.31 26.6561C138.043 26.8731 138.965 26.9811 140.077 26.9811C141.217 26.9811 142.099 26.7911 142.723 26.4111C143.374 26.0311 143.699 25.5031 143.699 24.8241C143.699 24.3641 143.564 23.9971 143.292 23.7261C143.048 23.4541 142.587 23.2101 141.909 22.9931C141.257 22.7491 140.254 22.4781 138.897 22.1791C136.483 21.6911 134.746 20.9991 133.688 20.1041C132.657 19.2091 132.142 17.9741 132.142 16.4011C132.142 15.2071 132.494 14.1351 133.2 13.1851C133.905 12.2091 134.868 11.4631 136.089 10.9471C137.337 10.4051 138.748 10.1331 140.321 10.1331C141.461 10.1331 142.56 10.2831 143.618 10.5811C144.627 10.8313 145.589 11.2433 146.467 11.8011C147.335 12.3441 147.769 13.0631 147.769 13.9591C147.769 14.5011 147.62 14.9631 147.321 15.3421C147.023 15.6951 146.656 15.8721 146.222 15.8721C145.924 15.8721 145.625 15.8171 145.327 15.7091C144.97 15.5273 144.617 15.3372 144.269 15.1391C143.482 14.7321 142.804 14.4341 142.234 14.2441C141.664 14.0271 140.959 13.9181 140.118 13.9181C139.114 13.9181 138.314 14.1221 137.717 14.5281C137.147 14.9351 136.862 15.4921 136.862 16.1971C136.862 16.8751 137.161 17.3911 137.758 17.7431C138.355 18.0961 139.508 18.4491 141.217 18.8021C143.035 19.1821 144.459 19.6151 145.49 20.1041C146.521 20.5921 147.253 21.2031 147.687 21.9351C148.149 22.6681 148.379 23.6041 148.379 24.7431C148.379 26.5881 147.606 28.0671 146.06 29.1791C144.54 30.2911 142.505 30.8471 139.955 30.8471Z" fill="#9C9C9C"/>
</svg>
