<svg width="200" height="49" viewBox="0 0 200 49" fill="none" xmlns="http://www.w3.org/2000/svg">
<g clip-path="url(#clip0_19_306)">
<path d="M54.381 42.466C51.061 42.466 48.516 41.898 46.745 40.762C45.005 39.594 44.136 37.889 44.136 35.648C44.136 34.512 44.516 33.58 45.274 32.854C46.065 32.097 47.077 31.718 48.31 31.718C49.037 31.75 49.59 31.938 49.97 32.286C50.35 32.602 50.54 32.902 50.54 33.186C50.54 33.217 50.381 33.328 50.065 33.517C49.749 33.707 49.465 33.991 49.211 34.369C48.958 34.749 48.831 35.269 48.831 35.932C48.831 37.416 49.275 38.568 50.16 39.389C51.077 40.178 52.484 40.572 54.381 40.572C55.678 40.572 56.816 40.32 57.797 39.815C58.777 39.31 59.52 38.647 60.026 37.826C60.563 36.974 60.832 36.09 60.832 35.174C60.832 34.038 60.5 33.06 59.836 32.239C59.191 31.4074 58.3845 30.7148 57.465 30.203C56.515 29.635 55.219 28.987 53.575 28.261C51.678 27.409 50.145 26.636 48.975 25.941C47.7993 25.2421 46.7812 24.3071 45.985 23.195C45.164 22.027 44.753 20.591 44.753 18.886C44.753 16.14 45.685 14.088 47.551 12.731C49.449 11.373 51.931 10.695 54.998 10.695C57.401 10.695 59.488 11.2 61.259 12.21C63.062 13.22 63.963 14.704 63.963 16.66C63.963 17.797 63.567 18.744 62.777 19.502C62.018 20.228 61.022 20.591 59.789 20.591C59.061 20.559 58.508 20.385 58.129 20.07C57.749 19.723 57.559 19.407 57.559 19.123C57.559 19.091 57.765 18.981 58.176 18.791C58.619 18.602 58.998 18.318 59.314 17.939C59.662 17.56 59.836 17.039 59.836 16.377C59.836 15.209 59.378 14.293 58.461 13.63C57.575 12.967 56.437 12.636 55.045 12.636C53.117 12.636 51.646 13.094 50.635 14.009C49.654 14.893 49.164 15.998 49.164 17.324C49.164 18.428 49.464 19.36 50.065 20.117C50.665 20.843 51.63 21.569 52.958 22.295C54.1096 22.9005 55.2802 23.4691 56.468 24C58.492 24.915 60.089 25.752 61.259 26.51C62.4637 27.2707 63.4842 28.2896 64.247 29.493C65.069 30.723 65.481 32.255 65.481 34.085C65.481 35.664 64.975 37.1 63.963 38.395C62.983 39.657 61.638 40.651 59.931 41.377C58.255 42.103 56.405 42.466 54.381 42.466ZM78.394 42.088C76.244 42.088 74.536 41.44 73.271 40.146C72.006 38.852 71.374 37.147 71.374 35.032V26.272C71.374 25.452 71.342 24.852 71.279 24.473C71.248 24.095 71.058 23.763 70.709 23.479C70.362 23.195 69.777 23.053 68.955 23.053C68.575 23.053 68.291 23.006 68.101 22.911C67.911 22.785 67.817 22.516 67.817 22.106C67.817 21.916 67.88 21.743 68.007 21.586C68.133 21.396 68.323 21.286 68.576 21.254C70.568 20.969 72.276 20.559 73.698 20.022C74.141 19.865 74.504 19.77 74.789 19.738H74.931C75.437 19.738 75.691 20.038 75.691 20.638V34.985C75.691 36.437 76.149 37.558 77.066 38.347C77.9549 39.0944 79.0827 39.4975 80.244 39.483C81.73 39.483 82.994 39.12 84.038 38.394C85.082 37.668 85.778 36.942 86.125 36.216V26.273C86.125 25.452 86.094 24.853 86.031 24.473C85.999 24.095 85.809 23.763 85.461 23.479C85.113 23.195 84.528 23.053 83.706 23.053C83.326 23.053 83.042 23.006 82.853 22.911C82.663 22.785 82.568 22.516 82.568 22.106C82.568 21.916 82.631 21.743 82.758 21.586C82.884 21.396 83.074 21.286 83.327 21.254C85.319 20.969 87.027 20.559 88.45 20.022C88.892 19.865 89.256 19.77 89.54 19.738H89.683C90.189 19.738 90.442 20.038 90.442 20.638V37.022C90.442 38.885 91.691 39.816 94.189 39.816C94.726 39.816 94.995 40.116 94.995 40.716C94.995 41.157 94.726 41.426 94.189 41.52L86.552 42.041C86.331 42.041 86.204 41.962 86.172 41.805C86.142 41.678 86.125 41.442 86.125 41.095V38.442H86.031C85.305 39.1239 84.5614 39.7868 83.801 40.43C83.232 40.872 82.489 41.251 81.571 41.567C80.686 41.914 79.627 42.087 78.394 42.087V42.088ZM97.59 41.662C97.4795 41.6615 97.3705 41.6355 97.2717 41.5861C97.1728 41.5367 97.0867 41.4651 97.02 41.377C96.894 41.188 96.83 40.967 96.83 40.715C96.862 40.305 96.957 40.067 97.115 40.005C97.274 39.91 97.558 39.862 97.969 39.862C98.791 39.862 99.376 39.72 99.724 39.436C100.072 39.152 100.262 38.82 100.293 38.442C100.357 38.062 100.388 37.463 100.388 36.642V25.799C100.388 24.979 100.357 24.379 100.293 23.999C100.262 23.621 100.072 23.289 99.724 23.006C99.376 22.722 98.791 22.579 97.969 22.579C97.589 22.579 97.305 22.532 97.116 22.437C96.926 22.311 96.831 22.043 96.831 21.632C96.831 21.443 96.894 21.269 97.021 21.112C97.147 20.922 97.337 20.812 97.59 20.78C99.645 20.464 101.337 20.054 102.665 19.549C103.203 19.391 103.566 19.296 103.756 19.265H103.898C104.404 19.265 104.657 19.565 104.657 20.165V23.1H104.799C105.906 21.995 107.029 21.127 108.167 20.496C109.306 19.833 110.333 19.502 111.25 19.502C112.294 19.502 113.116 19.896 113.717 20.685C114.349 21.443 114.665 22.327 114.665 23.337C114.665 24.221 114.397 25.01 113.859 25.704C113.321 26.399 112.578 26.746 111.63 26.746C111.217 26.7532 110.809 26.6555 110.444 26.462C110.128 26.272 109.954 26.115 109.922 25.989C109.954 25.926 110.112 25.736 110.396 25.42C110.681 25.073 110.823 24.679 110.823 24.237C110.823 23.668 110.665 23.211 110.349 22.864C110.064 22.516 109.669 22.343 109.163 22.343C108.626 22.343 107.946 22.611 107.124 23.148C106.301 23.653 105.495 24.3 104.705 25.089V36.642C104.705 37.463 104.736 38.062 104.799 38.442C104.863 38.82 105.068 39.152 105.416 39.436C105.764 39.72 106.349 39.862 107.171 39.862H107.456C107.709 39.862 107.898 39.91 108.025 40.004C108.151 40.099 108.23 40.336 108.262 40.714C108.262 40.967 108.199 41.188 108.072 41.377C107.946 41.567 107.756 41.662 107.503 41.662C105.844 41.5719 104.184 41.5242 102.523 41.519C101.1 41.519 99.456 41.568 97.59 41.662ZM171.257 42.088C169.107 42.088 167.194 41.582 165.518 40.572C163.842 39.531 162.53 38.173 161.581 36.5C160.677 34.8447 160.204 32.9882 160.206 31.102C160.206 28.735 160.759 26.683 161.866 24.947C162.973 23.179 164.38 21.837 166.087 20.922C167.795 19.975 169.518 19.502 171.257 19.502C173.408 19.502 175.321 20.022 176.997 21.064C178.641 22.0407 179.986 23.449 180.886 25.136C181.823 26.7632 182.313 28.6086 182.309 30.486C182.309 32.854 181.74 34.922 180.602 36.69C179.495 38.426 178.088 39.767 176.38 40.714C174.673 41.63 172.965 42.088 171.257 42.088ZM171.257 40.336C173.408 40.336 174.973 39.42 175.953 37.589C176.965 35.759 177.471 33.391 177.471 30.487C177.471 27.772 176.949 25.563 175.906 23.857C174.894 22.122 173.344 21.254 171.257 21.254C169.076 21.254 167.495 22.154 166.514 23.953C165.534 25.752 165.044 28.103 165.044 31.008C165.044 33.722 165.55 35.964 166.562 37.731C167.574 39.468 169.139 40.336 171.257 40.336ZM194.261 42.324C192.711 42.324 191.383 41.756 190.276 40.62C189.17 39.483 188.616 37.858 188.616 35.743V21.822L185.865 21.917C185.773 21.9178 185.682 21.8967 185.6 21.8555C185.517 21.8143 185.446 21.7541 185.391 21.68C185.267 21.4987 185.2 21.2839 185.201 21.064C185.201 20.78 185.249 20.544 185.343 20.354C185.47 20.133 185.644 20.007 185.865 19.975C186.972 19.755 187.826 19.407 188.427 18.934C189.059 18.428 189.518 17.892 189.802 17.324C190.087 16.724 190.435 15.824 190.846 14.624C191.004 14.214 191.352 14.009 191.889 14.009C192.11 14.009 192.332 14.072 192.553 14.199C192.774 14.293 192.885 14.451 192.885 14.672L192.553 20.07L198.103 19.738H198.198C198.609 19.738 198.814 20.038 198.814 20.638C198.814 20.985 198.751 21.317 198.624 21.632C198.53 21.917 198.403 22.059 198.245 22.059L192.933 21.917V36.311C192.933 37.353 193.138 38.221 193.549 38.915C193.992 39.61 194.703 39.957 195.684 39.957C196.664 39.957 197.534 39.783 198.292 39.436C198.704 39.278 198.956 39.199 199.051 39.199C199.273 39.199 199.447 39.294 199.573 39.483C199.7 39.641 199.826 39.863 199.953 40.146C199.987 40.2204 200.003 40.3014 200 40.383C200 40.509 199.905 40.651 199.715 40.809C198.798 41.409 197.929 41.804 197.107 41.993C196.316 42.213 195.367 42.324 194.261 42.324ZM117.597 41.377C117.723 41.567 117.913 41.661 118.166 41.661C119.809 41.5708 121.454 41.5235 123.099 41.519C125.218 41.519 127.194 41.567 129.028 41.661C129.132 41.6634 129.235 41.6384 129.327 41.5886C129.418 41.5387 129.495 41.4658 129.55 41.377C129.676 41.187 129.739 40.967 129.739 40.714C129.708 40.336 129.629 40.099 129.502 40.004C129.407 39.91 129.218 39.862 128.933 39.862H128.648C127.605 39.862 126.862 39.783 126.419 39.625C125.976 39.468 125.676 39.183 125.518 38.773C125.36 38.331 125.281 37.621 125.281 36.643V21.915H130.309C130.419 21.9145 130.528 21.8886 130.627 21.8393C130.725 21.7901 130.811 21.7188 130.878 21.631C131.036 21.442 131.115 21.221 131.115 20.968C131.083 20.59 130.988 20.353 130.83 20.258C130.704 20.132 130.498 20.068 130.214 20.068H125.281V17.228C125.281 15.713 125.344 14.387 125.47 13.25C125.588 12.1085 125.961 11.0082 126.561 10.03C127.162 9.052 128.095 8.563 129.36 8.563C129.505 8.563 129.646 8.571 129.782 8.588C129.764 8.05753 129.799 7.5266 129.886 7.003C129.821 7.00122 129.757 7.00022 129.692 7C126.909 7.063 124.743 8.12 123.194 10.173C121.676 12.193 120.917 14.829 120.917 18.08V20.069H118.071C117.66 20.069 117.375 20.116 117.217 20.211C117.059 20.274 116.964 20.527 116.933 20.968C116.933 21.221 116.996 21.442 117.122 21.631C117.281 21.821 117.486 21.916 117.739 21.916H120.917V36.642C120.917 37.495 120.885 38.11 120.822 38.489C120.791 38.836 120.601 39.152 120.253 39.436C119.905 39.72 119.32 39.862 118.498 39.862C118.087 39.862 117.802 39.91 117.644 40.004C117.518 40.067 117.439 40.304 117.407 40.714C117.407 40.967 117.47 41.188 117.597 41.377Z" fill="#9C9C9C"/>
<path fill-rule="evenodd" clip-rule="evenodd" d="M142.952 9.865C142.951 10.5564 142.814 11.2409 142.549 11.8794C142.284 12.518 141.896 13.098 141.406 13.5865C140.917 14.0749 140.336 14.4622 139.697 14.7261C139.058 14.9901 138.373 15.1257 137.682 15.125C136.286 15.1261 134.946 14.5725 133.958 13.5862C132.97 12.5998 132.414 11.2613 132.412 9.865C132.412 9.17346 132.549 8.48879 132.814 7.85009C133.079 7.21139 133.468 6.63117 133.957 6.14255C134.447 5.65392 135.027 5.26647 135.666 5.00232C136.306 4.73816 136.99 4.60247 137.682 4.603C138.374 4.60234 139.058 4.73794 139.698 5.00205C140.337 5.26616 140.918 5.6536 141.407 6.14225C141.896 6.6309 142.285 7.21118 142.55 7.84994C142.815 8.4887 142.952 9.17342 142.952 9.865ZM137.682 12.495C138.028 12.4954 138.37 12.4277 138.69 12.2957C139.009 12.1637 139.3 11.9701 139.544 11.7259C139.789 11.4816 139.983 11.1916 140.116 10.8723C140.248 10.553 140.317 10.2107 140.317 9.865C140.317 9.51919 140.249 9.1768 140.116 8.85739C139.984 8.53798 139.789 8.24782 139.545 8.00348C139.3 7.75914 139.009 7.56542 138.69 7.43339C138.37 7.30136 138.028 7.2336 137.682 7.234C136.984 7.23373 136.314 7.51058 135.82 8.00371C135.326 8.49685 135.048 9.16594 135.047 9.864C135.048 10.5622 135.326 11.2316 135.82 11.7249C136.314 12.2183 136.984 12.4953 137.682 12.495ZM135.372 17.414V42.784C135.372 43.067 135.452 43.288 135.61 43.446C135.768 43.636 135.989 43.73 136.274 43.73C136.558 43.73 136.795 43.604 136.985 43.352C137.175 43.131 137.349 42.799 137.507 42.357C137.665 41.915 137.807 41.568 137.934 41.315H138.171C140.226 42.862 142.661 43.635 145.475 43.635C147.373 43.635 149.159 43.13 150.835 42.12C152.511 41.11 153.839 39.737 154.82 38C155.831 36.233 156.337 34.292 156.337 32.177C156.337 30.03 155.895 28.121 155.009 26.447C154.156 24.743 152.97 23.417 151.452 22.47C149.934 21.523 148.242 21.05 146.377 21.05C145.238 21.05 144.084 21.286 142.914 21.76C141.776 22.202 140.748 22.88 139.831 23.796H139.689V17.5C138.269 17.8685 136.776 17.8388 135.372 17.414ZM149.697 39.421C148.527 41.158 146.977 42.026 145.049 42.026C144.037 42.026 143.136 41.805 142.345 41.363C141.586 40.921 140.969 40.4 140.495 39.8C140.052 39.169 139.784 38.6 139.689 38.096V25.596C141.048 24.143 142.724 23.417 144.717 23.417C146.962 23.417 148.653 24.301 149.792 26.069C150.93 27.805 151.499 29.904 151.499 32.366C151.499 35.302 150.899 37.654 149.697 39.421ZM12.7 0.366998C13.0354 0.127971 13.4371 -0.000488281 13.849 -0.000488281C14.2609 -0.000488281 14.6625 0.127971 14.998 0.366998C23.558 6.471 27.438 13.788 27.683 24.287C27.796 29.3 27.313 33.89 25.842 37.855C24.332 41.823 21.649 45.488 17.699 48.584C17.453 48.7751 17.1655 48.9055 16.8596 48.9646C16.5538 49.0237 16.2384 49.0098 15.939 48.924C14.729 48.577 14.523 47.145 13.849 46.253C13.175 47.145 12.971 48.576 11.759 48.923C11.4597 49.0086 11.1444 49.0224 10.8388 48.9633C10.5332 48.9043 10.2458 48.774 9.99997 48.583C6.04997 45.488 3.36597 41.823 1.85697 37.855C0.38697 33.89 -0.0970298 29.3 0.0159702 24.287C0.25997 13.788 4.13997 6.47 12.7 0.366998ZM17.126 44.062C19.598 41.792 21.088 39.317 22.14 36.47C23.465 32.99 23.847 29.144 23.732 24.379C23.542 16.192 21.622 10.865 15.809 5.919V20.387C18.082 20.971 19.102 23.197 19.102 25.647C19.102 28.099 18.082 30.325 15.809 30.909V42.746C15.809 42.746 16.865 43.719 17.126 44.062ZM10.538 44.062C8.06597 41.792 6.61097 39.317 5.55797 36.47C4.23397 32.99 3.85197 29.144 3.96797 24.379C4.15797 16.209 6.06697 10.859 11.856 5.919V20.387C9.58297 20.971 8.56197 23.197 8.56197 25.647C8.56197 28.099 9.58197 30.325 11.856 30.909V42.746C11.856 42.746 10.79 43.731 10.538 44.062ZM13.832 23.017C13.1338 23.0165 12.4641 23.2932 11.9699 23.7864C11.4758 24.2796 11.1978 24.9489 11.197 25.647C11.197 27.101 12.377 28.278 13.832 28.278C14.5301 28.2785 15.1999 28.0018 15.694 27.5086C16.1881 27.0154 16.4662 26.3461 16.467 25.648C16.467 24.195 15.287 23.017 13.832 23.017Z" fill="#9C9C9C"/>
</g>
<defs>
<clipPath id="clip0_19_306">
<rect width="200" height="49" fill="white"/>
</clipPath>
</defs>
</svg>
