<svg width="196" height="33" viewBox="0 0 196 33" fill="none" xmlns="http://www.w3.org/2000/svg">
<path d="M21.644 31.9573C20.4706 31.9888 19.3082 31.7243 18.264 31.1883C17.2254 30.656 16.3395 29.8679 15.69 28.8983C13.6449 30.7768 10.9953 31.8618 8.22 31.9573C3.233 31.9573 0.53 28.4933 1.443 23.5273C2.137 19.7933 5.242 16.0513 6.11 13.0473C4.43 12.0393 1.936 11.3373 0.767 13.3973L0 12.9383C0.612 10.6803 2.091 9.17829 4.228 9.17829C6.365 9.17829 7.945 10.4283 9.982 9.27729H11.607C10.74 13.7753 8.548 17.3733 7.379 23.6713C6.667 27.5313 7.991 29.2853 10.229 29.2853C11.8822 29.082 13.403 28.278 14.502 27.0263C13.6095 24.8299 13.1596 22.479 13.178 20.1083C13.178 14.6383 15.726 8.87229 20 8.87229C22.192 8.87229 23.817 10.3743 23.817 13.9373C23.817 17.4993 21.626 23.0143 18.831 26.4773C18.982 27.3023 19.421 28.0493 20.071 28.5903C20.721 29.1303 21.542 29.4303 22.393 29.4383C26.466 29.4383 29.315 23.4183 29.315 17.8503C29.315 12.2823 26.868 12.5333 27.078 10.6533C27.0969 10.4183 27.162 10.1895 27.2696 9.97976C27.3772 9.77005 27.5252 9.58366 27.705 9.43129C28.069 9.12129 28.543 8.96629 29.023 8.99829C30.293 8.99829 31.963 10.5813 31.963 17.0053C31.963 25.1913 27.544 31.9573 21.644 31.9573ZM20.722 11.6973C19.452 11.6973 18.228 16.3123 18.073 21.0803C18.0137 22.0999 18.0321 23.1225 18.128 24.1393C20.0432 21.0204 21.2119 17.5012 21.543 13.8563C21.534 12.2363 21.233 11.6963 20.721 11.6963L20.722 11.6973ZM40.329 31.7503C39.7964 31.8045 39.2584 31.7428 38.752 31.5693C38.2475 31.3969 37.7868 31.1163 37.402 30.7473C37.0197 30.3803 36.7233 29.9333 36.534 29.4383C36.3451 28.9454 36.2686 28.4165 36.31 27.8903C36.31 25.6863 39.215 14.7013 39.215 12.8933C39.215 12.0393 39.014 11.5353 38.247 11.5353C37.3912 11.6726 36.5942 12.057 35.954 12.6413V11.0853C37.2835 9.87923 38.9997 9.18707 40.794 9.13329C41.3299 9.08562 41.8698 9.15383 42.377 9.33329C42.883 9.51329 43.343 9.79829 43.726 10.1713C44.108 10.5433 44.404 10.9933 44.592 11.4913C44.779 11.9873 44.855 12.5183 44.812 13.0463C44.812 15.2503 41.909 26.1903 41.909 27.9893C41.909 28.8443 42.109 29.3483 42.877 29.3483C43.7212 29.2079 44.5126 28.8444 45.169 28.2953V29.7973C43.8445 31.0115 42.1253 31.7053 40.329 31.7503ZM43.89 0.00128644C44.288 -0.0107136 44.684 0.0612865 45.051 0.215286C45.417 0.369286 45.746 0.599286 46.012 0.890286C46.279 1.17907 46.4787 1.52348 46.5967 1.89871C46.7146 2.27394 46.7478 2.67066 46.694 3.06029C46.5958 3.89219 46.1972 4.6596 45.573 5.21829C44.9435 5.78209 44.1329 6.10173 43.288 6.11929C42.8905 6.13188 42.4949 6.0589 42.128 5.90529C41.7623 5.75251 41.4341 5.52221 41.166 5.23029C40.899 4.9415 40.6993 4.5971 40.5813 4.22186C40.4634 3.84663 40.4302 3.44991 40.484 3.06029C40.5823 2.22841 40.9809 1.46103 41.605 0.902286C42.2347 0.338927 43.0453 0.0186572 43.89 0.00128644ZM55.196 27.0363C54.941 28.3943 55.096 29.3393 56.064 29.3393C56.9112 29.2089 57.7051 28.8441 58.356 28.2863L58.447 29.7973C57.1176 31.0037 55.4014 31.6962 53.607 31.7503C50.447 31.7503 49.224 29.4923 49.69 26.6853L52.795 9.27729C53.827 3.46529 53.47 2.70029 50.31 2.70029L50.511 1.29729L60.036 0.0552864L55.196 27.0363ZM81.982 26.9903C81.726 28.3493 81.826 29.3483 82.849 29.3483C83.6981 29.1896 84.4896 28.8075 85.142 28.2413V29.7973C83.8212 31.0173 82.0996 31.7119 80.302 31.7503C79.3927 31.8162 78.4912 31.5434 77.771 30.9843C77.0565 30.4307 76.5772 29.6279 76.429 28.7363C75.6625 29.7348 74.6786 30.5456 73.552 31.1073C72.4197 31.6727 71.1745 31.9755 69.909 31.9933C63.854 31.9933 61.306 26.7303 62.475 20.4053C63.644 14.0813 69.095 8.91729 75.26 8.91729C76.7175 8.88675 78.1591 9.22379 79.452 9.89729L79.607 9.09729C80.813 2.90729 80.256 2.70029 77.096 2.70029L77.251 1.29729L86.821 0.0552864L81.981 26.9913L81.982 26.9903ZM75.415 11.1843C71.899 11.1843 69.562 15.2953 68.639 20.3603C67.671 25.6773 68.283 29.3573 71.589 29.3573C73.826 29.3573 76.374 26.6573 77.141 22.5373L79.023 12.1023C77.9348 11.4528 76.6813 11.1339 75.415 11.1843ZM98.073 32.0013C90.995 32.0013 89.059 26.9813 89.927 22.1683L92.237 9.27729C93.306 3.45729 92.95 2.65529 89.79 2.65529L89.99 1.25229L99.543 0.0552864L97.607 10.9863C99.1008 9.7102 100.986 8.98332 102.95 8.92629C109.114 8.92629 112.009 14.0903 110.895 20.4143C109.781 26.7393 104.11 32.0013 98.073 32.0013ZM101.379 11.3103C100.352 11.3303 99.3576 11.6709 98.534 12.2843C97.7166 12.8929 97.1139 13.7456 96.813 14.7193L95.388 22.8163C94.52 27.6293 96.256 29.5903 98.448 29.5903C101.653 29.5903 103.644 26.0823 104.712 20.3153C105.662 15.1513 104.795 11.3373 101.37 11.3373L101.379 11.3103ZM120.548 23.3293C120.548 27.1893 122.429 29.2493 126.027 29.2493C127.854 29.2493 130.511 27.9993 132.192 26.3433L132.904 27.9443C131.693 29.2073 130.242 30.2163 128.637 30.9123C127.025 31.6111 125.291 31.9843 123.534 32.0103C118.192 32.0103 114.575 28.0973 114.575 22.7803C114.575 14.9083 121.196 8.93529 127.562 8.93529C131.434 8.93529 133.616 11.0403 133.616 13.4963C133.571 17.3103 129.9 21.5933 120.548 23.3293ZM127.114 11.2383C124.21 11.2383 121.416 15.4033 120.648 21.3683C126.502 19.9643 128.995 16.0513 129.05 13.5413C129.041 12.1383 128.374 11.2383 127.105 11.2383H127.114ZM154.393 31.7503C153.484 31.8161 152.582 31.5433 151.862 30.9843C151.148 30.4306 150.669 29.6278 150.521 28.7363C149.783 29.7344 148.822 30.5468 147.715 31.1093C146.603 31.6753 145.376 31.9775 144.128 31.9923C138.174 31.9923 135.626 26.7303 136.822 20.4053C138.018 14.0813 143.379 8.92529 149.562 8.92529C150.872 8.91866 152.17 9.17611 153.379 9.68229H159.187L156.073 26.9903C155.817 28.3493 155.918 29.3483 156.941 29.3483C157.79 29.1894 158.581 28.8073 159.233 28.2413V29.7973C157.912 31.0172 156.191 31.7118 154.393 31.7503ZM149.708 11.1843C146.292 11.1843 143.9 15.2953 142.986 20.3603C142.018 25.6773 142.685 29.3573 145.726 29.3573C148.064 29.3573 150.566 26.5503 151.279 22.5373L153.16 12.1023C152.133 11.4528 150.931 11.1325 149.717 11.1843H149.708ZM177.005 14.8453C175.626 14.8453 175.269 13.7933 174.868 12.6863C174.731 12.1267 174.402 11.6328 173.939 11.2903C173.472 10.9449 172.9 10.7708 172.32 10.7973C171.566 10.7574 170.824 10.9974 170.237 11.4713C169.654 11.9404 169.27 12.6121 169.16 13.3523C169.005 14.7113 170.027 15.8623 171.963 17.5173L174.557 19.6223C175.521 20.3401 176.269 21.3085 176.721 22.4223C177.17 23.5323 177.303 24.7423 177.105 25.9203C176.447 29.6803 173.288 31.9923 169.059 31.9923C163.963 31.9923 160.712 29.0323 161.068 27.0263C161.151 26.4993 161.421 26.0163 161.831 25.6683C162.241 25.3183 162.764 25.1243 163.306 25.1193C164.63 25.1193 165.132 26.1183 165.543 27.4223C165.807 28.1723 166.314 28.8143 166.986 29.2503C167.66 29.6866 168.459 29.8913 169.26 29.8333C170.052 29.8708 170.829 29.6152 171.444 29.1153C172.053 28.6196 172.454 27.9128 172.566 27.1353C172.767 25.3353 171.653 24.2293 169.562 22.3663L167.014 20.1623C166.118 19.489 165.418 18.5891 164.986 17.5553C164.556 16.5266 164.411 15.4013 164.566 14.2973C165.023 11.8863 167.306 8.89929 172.557 8.89929C176.63 8.89929 179.178 11.1573 178.95 12.9653C178.924 13.464 178.71 13.9342 178.35 14.2803C177.99 14.6283 177.509 14.8303 177.005 14.8453ZM195.644 11.6973H190.703L188.311 25.0293C187.799 27.7913 188.21 29.0423 189.735 29.0423C190.548 29.0423 191.826 28.5923 193.653 26.7393L193.753 28.6913C192.923 29.659 191.895 30.4366 190.738 30.9713C189.576 31.509 188.312 31.7927 187.032 31.8033C183.571 31.8033 181.836 29.3933 182.658 24.9303L185.05 11.6973H181.187L181.489 9.63729H185.388L186.411 3.67229H192.11L191.041 9.63629H195.982L195.644 11.6973Z" fill="#9C9C9C"/>
</svg>
