<svg width="206" height="40" viewBox="0 0 206 40" fill="none" xmlns="http://www.w3.org/2000/svg">
<path fill-rule="evenodd" clip-rule="evenodd" d="M12.945 36.1229C12.8121 36.1217 12.6813 36.09 12.5626 36.0304C12.4438 35.9708 12.3403 35.8847 12.26 35.7789C12.0319 35.4756 11.8778 35.1233 11.81 34.7499C11.7016 34.2746 11.6181 33.7939 11.56 33.3099C11.4909 32.6866 11.4555 32.06 11.454 31.4329C11.4334 30.0549 11.4381 28.6767 11.468 27.2989C11.486 26.4529 11.494 25.7929 11.494 25.3169V9.56489C11.494 8.78889 11.499 8.19889 11.508 7.79389C11.517 7.38889 11.548 6.93089 11.599 6.41989C11.629 6.03989 11.695 5.66389 11.798 5.29689C11.898 5.01389 12.031 4.74389 12.193 4.49089C12.343 4.22589 12.561 4.00689 12.826 3.85689C13.134 3.70289 13.451 3.56689 13.775 3.44689C14.1925 3.29171 14.6252 3.18109 15.066 3.11689C15.6403 3.03305 16.2165 2.96237 16.794 2.90489V1.44989L16.344 0.999894H0.422L0 1.44989V2.69189C2.672 2.85089 4.166 3.60889 4.482 4.96489C4.666 6.10989 4.754 7.26789 4.746 8.42689V32.5539C4.79021 33.8071 4.73705 35.0619 4.587 36.3069C4.514 36.5009 4.407 36.6789 4.271 36.8349C4.06737 37.0784 3.85212 37.3121 3.626 37.5349C3.44685 37.708 3.27535 37.8888 3.112 38.0769V39.0019C16.699 39.0019 25.109 39.0899 28.342 39.2669L29.477 35.4349L28.765 34.9319C23.515 35.5929 18.235 35.9899 12.946 36.1219L12.945 36.1229ZM38.201 25.0769C38.1494 25.0913 38.0965 25.1001 38.043 25.1029C37.78 25.1029 37.648 25.0069 37.648 24.8129C37.649 23.9369 37.715 23.0619 37.846 22.1959C37.994 21.2519 38.241 20.3259 38.584 19.4349C38.9145 18.5315 39.3678 17.6778 39.931 16.8979C40.5279 16.1045 41.3031 15.4626 42.1939 15.0242C43.0847 14.5857 44.0662 14.363 45.059 14.3739C45.7755 14.3341 46.4899 14.4814 47.1323 14.8012C47.7747 15.121 48.3228 15.6023 48.723 16.1979C49.5542 17.4297 49.987 18.8871 49.963 20.3729C49.9595 20.6453 49.873 20.9101 49.715 21.132C49.5571 21.3539 49.3352 21.5224 49.079 21.6149C47.6353 22.1967 46.1612 22.6997 44.663 23.1219C42.5559 23.7419 40.4558 24.3853 38.363 25.0519C38.3082 25.0542 38.2539 25.0626 38.201 25.0769ZM53.861 33.3219C50.696 35.2419 47.963 36.2019 45.663 36.2019C44.1049 36.2357 42.5749 35.7831 41.286 34.9069C40.087 34.1023 39.1336 32.9821 38.531 31.6699C37.9377 30.354 37.6364 28.9253 37.648 27.4819C49.143 23.9059 54.943 22.1169 55.048 22.1169C55.5045 22.0235 55.9124 21.7696 56.1977 21.4011C56.483 21.0327 56.6268 20.5742 56.603 20.1089C56.6343 18.8116 56.3301 17.5282 55.72 16.3829C55.1628 15.3585 54.3382 14.5045 53.334 13.9119C52.3208 13.3172 51.2229 12.8805 50.078 12.6169C48.8362 12.3357 47.5662 12.1982 46.293 12.2069C44.009 12.1715 41.744 12.6267 39.651 13.5419C37.8056 14.339 36.1751 15.5617 34.893 17.1099C33.6842 18.6069 32.7513 20.3071 32.138 22.1309C31.502 24.0075 31.181 25.9764 31.188 27.9579C31.188 32.0279 32.288 35.0759 34.484 37.1019C36.47 38.9519 39.274 39.8759 42.894 39.8759C44.9696 39.8546 47.0126 39.3575 48.866 38.4229C51.0979 37.3113 53.2359 36.0204 55.259 34.5629L54.682 33.5349L53.861 33.3219ZM89.37 5.45689C88.6636 3.61168 87.2763 2.10772 85.494 1.25489C83.2862 0.326042 80.9014 -0.106812 78.508 -0.0131064C76.7614 -0.0231252 75.0206 0.189931 73.328 0.620894C71.7535 1.0218 70.2504 1.66372 68.872 2.52389C67.5219 3.37504 66.4177 4.56436 65.669 5.97389C64.8563 7.51566 64.4479 9.23837 64.482 10.9809C64.4811 12.2282 64.7842 13.457 65.365 14.5609C65.9198 15.6534 66.6706 16.6347 67.58 17.4559C68.558 18.3185 69.5974 19.1089 70.69 19.8209C71.7867 20.5516 72.9223 21.2219 74.092 21.8289C75.1916 22.3941 76.2731 22.9937 77.335 23.6269C78.215 24.1249 79.041 24.7139 79.8 25.3839C81.75 27.1989 82.726 28.9249 82.726 30.5639C82.7224 31.4345 82.5404 32.2951 82.1913 33.0927C81.8421 33.8902 81.3332 34.6077 80.696 35.2009C80.0634 35.852 79.3046 36.3672 78.466 36.7149C77.6274 37.0626 76.7267 37.2354 75.819 37.2229C74.7576 37.2534 73.7033 37.0406 72.7369 36.6009C71.7704 36.1611 70.9173 35.5061 70.243 34.6859C68.8437 33.0835 68.0796 31.0242 68.095 28.8969L67.068 28.5269L61.822 34.4199C63.0209 36.1551 64.6464 37.5522 66.542 38.4769C68.4694 39.4225 70.5902 39.9069 72.737 39.8919C74.6958 39.882 76.6421 39.5787 78.511 38.9919C80.3905 38.4261 82.1827 37.6033 83.837 36.5469C85.4096 35.5426 86.7451 34.2085 87.751 32.6369C88.7369 31.1425 89.2639 29.3922 89.267 27.6019C89.2749 26.6411 89.1054 25.6871 88.767 24.7879C88.454 23.9528 88.0185 23.1689 87.475 22.4619C86.8352 21.677 86.0948 20.9796 85.273 20.3879C84.3751 19.7107 83.4374 19.088 82.465 18.5229C81.3011 17.8597 80.1235 17.2209 78.933 16.6069C78.1029 16.2045 77.2852 15.777 76.481 15.3249C75.7205 14.8804 74.9804 14.402 74.263 13.8909C73.5275 13.3867 72.8553 12.7958 72.261 12.1309C71.7387 11.5104 71.312 10.8154 70.995 10.0689C70.6431 9.26505 70.4636 8.39638 70.468 7.51889C70.4518 6.80124 70.5797 6.08763 70.8443 5.42031C71.1088 4.75299 71.5045 4.14553 72.008 3.63389C72.5401 3.10204 73.1769 2.68653 73.8781 2.41369C74.5792 2.14085 75.3293 2.01662 76.081 2.04889C77.0121 2.00868 77.9405 2.17494 78.7997 2.53576C79.659 2.89657 80.4278 3.44301 81.051 4.13589C82.2997 5.5492 83.0863 7.31068 83.305 9.18389L84.228 9.47389L89.37 5.45689ZM115.008 15.5919C114.537 14.7671 113.855 14.0829 113.031 13.6099C112.216 13.1441 111.336 12.8014 110.421 12.5929C109.439 12.3751 108.435 12.2687 107.429 12.2759C105.51 12.2489 103.602 12.5759 101.8 13.2409C100.254 13.8022 98.8378 14.6695 97.635 15.7909C96.5172 16.8738 95.5902 18.1375 94.893 19.5289C94.1763 20.9286 93.6487 22.4173 93.324 23.9559C93.0037 25.5121 92.8449 27.0971 92.85 28.6859C92.844 30.0359 93.035 31.3799 93.416 32.6739C93.786 33.9269 94.361 35.1099 95.116 36.1759C95.9121 37.2754 96.9799 38.1496 98.215 38.7129C99.633 39.3609 101.178 39.6819 102.736 39.6509C107.675 39.6509 112.315 37.4749 116.656 33.1239L116.129 32.3569L115.47 32.1989C112.254 34.6829 109.283 35.9249 106.559 35.9249C105.539 35.9413 104.531 35.71 103.62 35.2509C102.794 34.841 102.076 34.2442 101.521 33.5079C100.97 32.751 100.522 31.9245 100.189 31.0499C99.8429 30.1766 99.5911 29.2687 99.438 28.3419C99.298 27.4679 99.228 26.5839 99.227 25.6989C99.233 24.5739 99.33 23.4519 99.517 22.3429C99.724 21.1079 100.033 19.8929 100.44 18.7089C100.81 17.5518 101.452 16.5003 102.312 15.6429C102.691 15.2592 103.142 14.9551 103.64 14.7487C104.139 14.5423 104.673 14.4376 105.212 14.4409C105.932 14.4012 106.65 14.5632 107.283 14.9088C107.916 15.2543 108.441 15.7697 108.797 16.3969C109.612 17.8656 110.013 19.5281 109.957 21.2069L110.88 21.5769L115.863 18.6179C115.822 17.5557 115.529 16.5185 115.008 15.5919ZM124.671 23.4539C124.805 22.4159 125.039 21.3939 125.37 20.4019C125.673 19.4369 126.103 18.5179 126.648 17.6669C127.172 16.8786 127.872 16.2227 128.692 15.7509C129.577 15.2401 130.584 14.9798 131.605 14.9979C132.713 14.9697 133.806 15.2583 134.755 15.8299C135.637 16.3792 136.346 17.1673 136.798 18.1029C137.275 19.0699 137.62 20.0959 137.825 21.1549C138.042 22.2949 138.149 23.4549 138.142 24.6169C138.142 25.6739 138.133 26.5549 138.115 27.2589C138.087 28.107 138.026 28.9536 137.931 29.7969C137.853 30.6269 137.708 31.4479 137.496 32.2539C137.289 32.9639 137.02 33.6539 136.692 34.3159C136.39 34.9712 135.954 35.5561 135.413 36.0329C134.854 36.4894 134.221 36.8469 133.541 37.0899C132.717 37.3848 131.846 37.5281 130.971 37.5129C130.007 37.5247 129.063 37.2383 128.268 36.6929C127.493 36.1734 126.848 35.4818 126.384 34.6719C125.897 33.8003 125.516 32.8733 125.25 31.9109C124.97 30.9638 124.767 29.9957 124.643 29.0159C124.541 28.1697 124.488 27.3182 124.485 26.4659C124.484 25.459 124.547 24.4531 124.671 23.4539ZM121.402 37.1169C123.317 38.8609 126.358 39.7329 130.524 39.7329C132.064 39.7429 133.6 39.5659 135.098 39.2039C136.507 38.8536 137.85 38.2782 139.076 37.4999C140.308 36.7226 141.385 35.7233 142.253 34.5529C143.202 33.2258 143.907 31.7402 144.336 30.1659C144.868 28.2567 145.125 26.2816 145.101 24.2999C145.152 22.7043 144.856 21.1167 144.232 19.6473C143.608 18.1778 142.672 16.8615 141.489 15.7899C139.291 13.8179 136.101 12.8309 131.919 12.8309C127.736 12.8309 124.291 14.1259 121.584 16.7159C120.255 17.972 119.206 19.4946 118.507 21.1842C117.807 22.8737 117.472 24.692 117.524 26.5199C117.524 31.2419 118.815 34.7739 121.399 37.1169H121.402ZM162.66 16.1869C164.066 16.1869 165.068 16.4689 165.666 17.0329C166.223 17.7129 166.575 18.5389 166.68 19.4129C166.901 20.4429 167.038 21.4909 167.089 22.5439C167.124 23.4689 167.142 24.6629 167.142 26.1249C167.141 28.0233 167.128 29.9217 167.103 31.8199C167.094 32.3919 167.098 33.0659 167.115 33.8419C167.12 34.4199 167.155 34.9979 167.221 35.5719C167.274 35.9519 167.344 36.3659 167.432 36.8139C167.493 37.1899 167.618 37.5509 167.801 37.8839C167.959 38.1489 168.153 38.3899 168.379 38.5989C169.17 39.3166 170.211 39.6957 171.278 39.6549C172.597 39.6549 174.108 38.9849 175.813 37.6469C177.236 36.4635 178.591 35.2015 179.873 33.8669L179.267 32.9669H178.634C177.603 33.7941 176.342 34.2833 175.023 34.3679C174.744 34.3839 174.464 34.343 174.201 34.2476C173.938 34.1522 173.697 34.0043 173.493 33.8129C173.311 33.669 173.155 33.4952 173.031 33.2989C172.886 32.9532 172.793 32.5879 172.755 32.2149C172.654 31.4573 172.61 30.6931 172.623 29.9289C172.623 29.3479 172.654 28.4089 172.715 27.1149C172.764 26.1949 172.795 25.2741 172.808 24.3529V22.7669C172.825 21.0579 172.821 19.8739 172.795 19.2119C172.742 18.3087 172.641 17.4091 172.491 16.5169C172.425 15.6757 172.144 14.8656 171.674 14.1649C171.21 13.6614 170.655 13.2494 170.039 12.9499C169.202 12.545 168.279 12.3497 167.35 12.3809C164.257 12.3809 160.671 13.6499 156.594 16.1869L155.961 15.9489C155.927 14.9772 155.611 14.0363 155.052 13.2409C154.533 12.5609 153.641 12.2229 152.376 12.2229C151.618 12.2324 150.866 12.3617 150.148 12.6059C149.313 12.8859 148.516 13.2679 147.774 13.7419C146.974 14.2449 146.28 14.7119 145.691 15.1429C145.102 15.5739 144.421 16.0979 143.648 16.7149L144.623 18.0099C144.802 17.8939 144.983 17.7796 145.164 17.6669C145.471 17.4729 145.739 17.3149 145.968 17.1909C146.196 17.0679 146.469 16.9229 146.785 16.7549C147.068 16.6009 147.364 16.4719 147.669 16.3689C147.902 16.2889 148.146 16.2439 148.393 16.2369C148.698 16.2299 148.999 16.3069 149.263 16.4619C149.531 16.6389 149.733 16.8989 149.841 17.2019C149.973 17.5219 150.087 17.8469 150.183 18.1789C150.291 18.6259 150.353 19.0819 150.368 19.5409C150.404 20.1409 150.425 20.6249 150.432 20.9939C150.44 21.3629 150.444 21.9179 150.445 22.6589V23.1089C150.445 24.8349 150.313 30.1199 150.05 38.9639L150.709 39.3339L156.641 37.6159C156.465 36.8589 156.333 34.4719 156.245 30.4559C156.158 26.5275 156.115 22.5983 156.117 18.6689C159.175 17.0129 161.354 16.1849 162.655 16.1849L162.66 16.1869ZM188.233 25.1969C188.182 25.2122 188.129 25.2216 188.075 25.2249C187.812 25.2249 187.68 25.1279 187.679 24.9349C187.68 24.0579 187.746 23.1839 187.878 22.3179C188.026 21.3739 188.273 20.4479 188.615 19.5559C188.946 18.6529 189.398 17.7989 189.96 17.0189C190.557 16.2253 191.332 15.5832 192.223 15.1447C193.114 14.7063 194.095 14.4836 195.088 14.4949C195.804 14.455 196.519 14.6022 197.161 14.922C197.804 15.2418 198.352 15.7232 198.752 16.3189C199.583 17.5506 200.016 19.0081 199.991 20.4939C199.987 20.766 199.901 21.0306 199.743 21.2524C199.585 21.4742 199.364 21.6428 199.108 21.7359C197.665 22.3174 196.191 22.8204 194.693 23.2429C192.586 23.8628 190.485 24.5062 188.392 25.1729C188.339 25.1758 188.286 25.1842 188.234 25.1979L188.233 25.1969ZM203.893 33.4429C200.728 35.3639 197.995 36.3239 195.694 36.3229C194.136 36.3565 192.606 35.9042 191.317 35.0289C190.118 34.224 189.165 33.1039 188.563 31.7919C187.969 30.4755 187.668 29.046 187.679 27.6019C199.174 24.0269 204.974 22.2389 205.08 22.2389C205.536 22.1451 205.944 21.8909 206.23 21.5224C206.515 21.1538 206.659 20.6953 206.635 20.2299C206.666 18.9326 206.362 17.6492 205.752 16.5039C205.195 15.4795 204.37 14.6256 203.366 14.0329C202.353 13.4384 201.255 13.0018 200.11 12.7379C198.868 12.4566 197.598 12.3191 196.324 12.3279C194.041 12.2927 191.776 12.7479 189.684 13.6629C187.839 14.4599 186.208 15.6826 184.926 17.2309C183.717 18.7277 182.784 20.4279 182.171 22.2519C181.535 24.1284 181.214 26.0975 181.222 28.0789C181.222 32.1489 182.32 35.1959 184.517 37.2229C186.503 39.0729 189.306 39.9969 192.927 39.9969C195.003 39.9755 197.046 39.4785 198.899 38.5439C201.131 37.4321 203.269 36.1415 205.292 34.6849L204.715 33.6559L203.893 33.4429Z" fill="#9C9C9C"/>
</svg>
