<svg width="17" height="13" fill="none" xmlns="http://www.w3.org/2000/svg"><path d="M15.3 0H1.7C.764 0 .007.731.007 1.625L0 11.375C0 12.269.765 13 1.7 13h13.6c.935 0 1.7-.731 1.7-1.625v-9.75C17 .731 16.235 0 15.3 0Zm-.34 3.453L8.95 7.045a.89.89 0 0 1-.9 0L2.04 3.453a.713.713 0 0 1-.216-.182.678.678 0 0 1-.137-.524.672.672 0 0 1 .101-.258.74.74 0 0 1 .75-.312.74.74 0 0 1 .267.106L8.5 5.688l5.695-3.405a.741.741 0 0 1 .554-.103.74.74 0 0 1 .463.31.673.673 0 0 1 .088.532.678.678 0 0 1-.124.249.712.712 0 0 1-.216.182Z" fill="url(#a)"/><defs><linearGradient id="a" x1="8.5" y1="0" x2="8.5" y2="13" gradientUnits="userSpaceOnUse"><stop stop-color="#FB0"/><stop offset="1" stop-color="#F2AA18"/></linearGradient></defs></svg>