<svg width="21" height="20" fill="none" xmlns="http://www.w3.org/2000/svg"><path d="M10.5 1.667c-3.675 0-7 2.683-7 6.833 0 2.65 2.144 5.767 6.423 9.358a.917.917 0 0 0 .582.206c.213 0 .42-.073.581-.206 4.27-3.591 6.415-6.708 6.415-9.358 0-4.15-3.326-6.833-7-6.833Zm0 8.333c-.963 0-1.75-.75-1.75-1.667s.787-1.667 1.75-1.667 1.75.75 1.75 1.667S11.464 10 10.5 10Z" fill="url(#a)"/><defs><linearGradient id="a" x1="10.5" y1="1.667" x2="10.5" y2="18.064" gradientUnits="userSpaceOnUse"><stop stop-color="#FB0"/><stop offset="1" stop-color="#F2AA18"/></linearGradient></defs></svg>