<svg width="19" height="18" fill="none" xmlns="http://www.w3.org/2000/svg"><path d="M9.5.667C4.687.667.75 4.417.75 9s3.938 8.333 8.75 8.333c4.812 0 8.75-3.75 8.75-8.333S14.311.667 9.5.667Zm3.105 11.5-3.57-2.092a.841.841 0 0 1-.308-.301.79.79 0 0 1-.111-.407V5.458a.628.628 0 0 1 .2-.44.678.678 0 0 1 .928 0 .615.615 0 0 1 .194.44v3.708l3.36 1.925c.315.184.42.575.226.876a.672.672 0 0 1-.416.28.7.7 0 0 1-.503-.08Z" fill="url(#a)"/><defs><linearGradient id="a" x1="9.5" y1=".667" x2="9.5" y2="17.333" gradientUnits="userSpaceOnUse"><stop stop-color="#FB0"/><stop offset="1" stop-color="#F2AA18"/></linearGradient></defs></svg>