<svg width="15" height="14" fill="none" xmlns="http://www.w3.org/2000/svg"><path d="m13.53 9.547-2.121-.226a1.773 1.773 0 0 0-.74.076 1.682 1.682 0 0 0-.629.368L8.503 11.2c-2.37-1.125-4.296-2.923-5.502-5.135l1.544-1.442c.36-.335.535-.803.476-1.279L4.78 1.38a1.53 1.53 0 0 0-.55-.985A1.742 1.742 0 0 0 3.117 0H1.673C.73 0-.055.733.003 1.613c.443 6.656 6.145 11.97 13.268 12.384.943.054 1.729-.678 1.729-1.559v-1.347a1.487 1.487 0 0 0-.418-1.035 1.697 1.697 0 0 0-1.052-.509Z" fill="url(#a)"/><defs><linearGradient id="a" x1="7.5" y1="0" x2="7.5" y2="14" gradientUnits="userSpaceOnUse"><stop stop-color="#FB0"/><stop offset="1" stop-color="#F2AA18"/></linearGradient></defs></svg>