<svg width="66" height="65" viewBox="0 0 66 65" fill="none" xmlns="http://www.w3.org/2000/svg">
<path d="M14.8107 60.8775C13.7061 60.87 12.8047 61.7593 12.7972 62.8639C12.7897 63.9684 13.6791 64.8699 14.7836 64.8774C15.8882 64.8849 16.7896 63.9955 16.7971 62.891C16.8046 61.7864 15.9152 60.885 14.8107 60.8775Z" fill="#E4A30B"/>
<path d="M2.81096 60.7963C1.70642 60.7888 0.80495 61.6781 0.797473 62.7827C0.789996 63.8872 1.67935 64.7887 2.78389 64.7962C3.88843 64.8036 4.7899 63.9143 4.79738 62.8097C4.80486 61.7052 3.91551 60.8037 2.81096 60.7963Z" fill="#E4A30B"/>
<path d="M38.8914 49.0402C37.7868 49.0327 36.8854 49.9221 36.8779 51.0266C36.8704 52.1312 37.7597 53.0326 38.8643 53.0401C39.9688 53.0476 40.8703 52.1582 40.8778 51.0537C40.8853 49.9491 39.9959 49.0477 38.8914 49.0402Z" fill="#E4A30B"/>
<path d="M26.8916 48.959C25.7871 48.9515 24.8856 49.8408 24.8781 50.9454C24.8707 52.0499 25.76 52.9514 26.8646 52.9589C27.9691 52.9664 28.8706 52.077 28.8781 50.9725C28.8855 49.8679 27.9962 48.9665 26.8916 48.959Z" fill="#E4A30B"/>
<path d="M14.8919 48.8778C13.7874 48.8703 12.8859 49.7596 12.8784 50.8642C12.8709 51.9687 13.7603 52.8702 14.8648 52.8777C15.9694 52.8851 16.8709 51.9958 16.8783 50.8912C16.8858 49.7867 15.9965 48.8852 14.8919 48.8778Z" fill="#E4A30B"/>
<path d="M2.89219 48.7965C1.78765 48.789 0.886174 49.6784 0.878698 50.7829C0.871221 51.8875 1.76057 52.789 2.86511 52.7964C3.96966 52.8039 4.87113 51.9146 4.87861 50.81C4.88608 49.7055 3.99673 48.804 2.89219 48.7965Z" fill="#E4A30B"/>
<path d="M50.9723 37.1217C49.8678 37.1142 48.9663 38.0036 48.9588 39.1081C48.9513 40.2127 49.8407 41.1141 50.9452 41.1216C52.0498 41.1291 52.9513 40.2397 52.9587 39.1352C52.9662 38.0306 52.0769 37.1292 50.9723 37.1217Z" fill="#E4A30B"/>
<path d="M38.9726 37.0405C37.868 37.033 36.9666 37.9223 36.9591 39.0269C36.9516 40.1314 37.841 41.0329 38.9455 41.0404C40.0501 41.0479 40.9515 40.1585 40.959 39.054C40.9665 37.9494 40.0771 37.048 38.9726 37.0405Z" fill="#E4A30B"/>
<path d="M26.9729 36.9592C25.8683 36.9518 24.9668 37.8411 24.9594 38.9457C24.9519 40.0502 25.8412 40.9517 26.9458 40.9592C28.0503 40.9666 28.9518 40.0773 28.9593 38.9727C28.9668 37.8682 28.0774 36.9667 26.9729 36.9592Z" fill="#E4A30B"/>
<path d="M14.9731 36.878C13.8686 36.8705 12.9671 37.7599 12.9596 38.8644C12.9522 39.969 13.8415 40.8705 14.9461 40.8779C16.0506 40.8854 16.9521 39.9961 16.9596 38.8915C16.967 37.787 16.0777 36.8855 14.9731 36.878Z" fill="#E4A30B"/>
<path d="M2.97341 36.7968C1.86887 36.7893 0.967399 37.6787 0.959922 38.7832C0.952446 39.8878 1.8418 40.7892 2.94634 40.7967C4.05088 40.8042 4.95235 39.9148 4.95983 38.8103C4.96731 37.7057 4.07796 36.8043 2.97341 36.7968Z" fill="#E4A30B"/>
<path d="M51.0535 25.122C49.949 25.1145 49.0475 26.0038 49.04 27.1084C49.0326 28.2129 49.9219 29.1144 51.0265 29.1219C52.131 29.1294 53.0325 28.24 53.04 27.1355C53.0474 26.0309 52.1581 25.1295 51.0535 25.122Z" fill="#E4A30B"/>
<path d="M39.0538 25.0407C37.9493 25.0333 37.0478 25.9226 37.0403 27.0272C37.0328 28.1317 37.9222 29.0332 39.0267 29.0407C40.1313 29.0481 41.0328 28.1588 41.0402 27.0542C41.0477 25.9497 40.1584 25.0482 39.0538 25.0407Z" fill="#E4A30B"/>
<path d="M27.0541 24.9595C25.9495 24.952 25.0481 25.8414 25.0406 26.9459C25.0331 28.0505 25.9225 28.952 27.027 28.9594C28.1316 28.9669 29.033 28.0776 29.0405 26.973C29.048 25.8685 28.1586 24.967 27.0541 24.9595Z" fill="#E4A30B"/>
<path d="M15.0544 24.8783C13.9498 24.8708 13.0483 25.7602 13.0409 26.8647C13.0334 27.9693 13.9227 28.8707 15.0273 28.8782C16.1318 28.8857 17.0333 27.9963 17.0408 26.8918C17.0483 25.7872 16.1589 24.8858 15.0544 24.8783Z" fill="#E4A30B"/>
<path d="M3.05464 24.7971C1.9501 24.7896 1.04862 25.6789 1.04115 26.7835C1.03367 27.888 1.92302 28.7895 3.02756 28.797C4.13211 28.8045 5.03358 27.9151 5.04106 26.8106C5.04853 25.706 4.15918 24.8046 3.05464 24.7971Z" fill="#E4A30B"/>
<path d="M63.1345 13.2035C62.0299 13.196 61.1285 14.0853 61.121 15.1899C61.1135 16.2944 62.0029 17.1959 63.1074 17.2034C64.212 17.2109 65.1134 16.3215 65.1209 15.217C65.1284 14.1124 64.239 13.2109 63.1345 13.2035Z" fill="#E4A30B"/>
<path d="M51.1348 13.1222C50.0302 13.1148 49.1287 14.0041 49.1213 15.1087C49.1138 16.2132 50.0031 17.1147 51.1077 17.1222C52.2122 17.1296 53.1137 16.2403 53.1212 15.1357C53.1287 14.0312 52.2393 13.1297 51.1348 13.1222Z" fill="#E4A30B"/>
<path d="M39.135 13.041C38.0305 13.0335 37.129 13.9229 37.1215 15.0274C37.1141 16.132 38.0034 17.0335 39.108 17.0409C40.2125 17.0484 41.114 16.1591 41.1215 15.0545C41.1289 13.95 40.2396 13.0485 39.135 13.041Z" fill="#E4A30B"/>
<path d="M27.1353 12.9598C26.0308 12.9523 25.1293 13.8417 25.1218 14.9462C25.1143 16.0508 26.0037 16.9522 27.1082 16.9597C28.2128 16.9672 29.1143 16.0778 29.1217 14.9733C29.1292 13.8687 28.2399 12.9673 27.1353 12.9598Z" fill="#E4A30B"/>
<path d="M15.1356 12.8786C14.031 12.8711 13.1296 13.7604 13.1221 14.865C13.1146 15.9695 14.004 16.871 15.1085 16.8785C16.2131 16.886 17.1145 15.9966 17.122 14.8921C17.1295 13.7875 16.2401 12.8861 15.1356 12.8786Z" fill="#E4A30B"/>
<path d="M3.13586 12.7973C2.03132 12.7899 1.12985 13.6792 1.12237 14.7838C1.11489 15.8883 2.00425 16.7898 3.10879 16.7973C4.21333 16.8047 5.1148 15.9154 5.12228 14.8108C5.12976 13.7063 4.24041 12.8048 3.13586 12.7973Z" fill="#E4A30B"/>
<path d="M63.2157 1.20375C62.1112 1.19627 61.2097 2.08562 61.2022 3.19016C61.1947 4.29471 62.0841 5.19618 63.1886 5.20366C64.2932 5.21113 65.1947 4.32178 65.2021 3.21724C65.2096 2.1127 64.3203 1.21122 63.2157 1.20375Z" fill="#E4A30B"/>
<path d="M51.216 1.12252C50.1114 1.11505 49.21 2.0044 49.2025 3.10894C49.195 4.21348 50.0844 5.11496 51.1889 5.12243C52.2935 5.12991 53.1949 4.24056 53.2024 3.13601C53.2099 2.03147 52.3205 1.13 51.216 1.12252Z" fill="#E4A30B"/>
<path d="M39.2163 1.0413C38.1117 1.03382 37.2102 1.92317 37.2028 3.02772C37.1953 4.13226 38.0846 5.03373 39.1892 5.04121C40.2937 5.04868 41.1952 4.15933 41.2027 3.05479C41.2102 1.95025 40.3208 1.04877 39.2163 1.0413Z" fill="#E4A30B"/>
<path d="M27.2165 0.960074C26.112 0.952597 25.2105 1.84195 25.203 2.94649C25.1956 4.05103 26.0849 4.95251 27.1895 4.95998C28.294 4.96746 29.1955 4.07811 29.203 2.97357C29.2104 1.86902 28.3211 0.96755 27.2165 0.960074Z" fill="#E4A30B"/>
<path d="M15.2168 0.878849C14.1123 0.871373 13.2108 1.76072 13.2033 2.86527C13.1958 3.96981 14.0852 4.87128 15.1897 4.87876C16.2943 4.88623 17.1958 3.99688 17.2032 2.89234C17.2107 1.7878 16.3214 0.886326 15.2168 0.878849Z" fill="#E4A30B"/>
<path d="M3.21709 0.797625C2.11254 0.790148 1.21107 1.6795 1.2036 2.78404C1.19612 3.88858 2.08547 4.79006 3.19001 4.79753C4.29456 4.80501 5.19603 3.91566 5.2035 2.81112C5.21098 1.70657 4.32163 0.805101 3.21709 0.797625Z" fill="#E4A30B"/>
</svg>
