<svg width="64" height="64" viewBox="0 0 64 64" fill="none" xmlns="http://www.w3.org/2000/svg">
<path d="M4 50C4 51.1046 3.10457 52 2 52C0.89543 52 0 51.1046 0 50C0 48.8954 0.89543 48 2 48C3.10457 48 4 48.8954 4 50Z" fill="#E4A30B"/>
<path d="M4 62C4 63.1046 3.10457 64 2 64C0.89543 64 0 63.1046 0 62C0 60.8954 0.89543 60 2 60C3.10457 60 4 60.8954 4 62Z" fill="#E4A30B"/>
<path d="M16 26C16 27.1046 15.1046 28 14 28C12.8954 28 12 27.1046 12 26C12 24.8954 12.8954 24 14 24C15.1046 24 16 24.8954 16 26Z" fill="#E4A30B"/>
<path d="M16 38C16 39.1046 15.1046 40 14 40C12.8954 40 12 39.1046 12 38C12 36.8954 12.8954 36 14 36C15.1046 36 16 36.8954 16 38Z" fill="#E4A30B"/>
<path d="M16 50C16 51.1046 15.1046 52 14 52C12.8954 52 12 51.1046 12 50C12 48.8954 12.8954 48 14 48C15.1046 48 16 48.8954 16 50Z" fill="#E4A30B"/>
<path d="M16 62C16 63.1046 15.1046 64 14 64C12.8954 64 12 63.1046 12 62C12 60.8954 12.8954 60 14 60C15.1046 60 16 60.8954 16 62Z" fill="#E4A30B"/>
<path d="M28 14C28 15.1046 27.1046 16 26 16C24.8954 16 24 15.1046 24 14C24 12.8954 24.8954 12 26 12C27.1046 12 28 12.8954 28 14Z" fill="#E4A30B"/>
<path d="M28 26C28 27.1046 27.1046 28 26 28C24.8954 28 24 27.1046 24 26C24 24.8954 24.8954 24 26 24C27.1046 24 28 24.8954 28 26Z" fill="#E4A30B"/>
<path d="M28 38C28 39.1046 27.1046 40 26 40C24.8954 40 24 39.1046 24 38C24 36.8954 24.8954 36 26 36C27.1046 36 28 36.8954 28 38Z" fill="#E4A30B"/>
<path d="M28 50C28 51.1046 27.1046 52 26 52C24.8954 52 24 51.1046 24 50C24 48.8954 24.8954 48 26 48C27.1046 48 28 48.8954 28 50Z" fill="#E4A30B"/>
<path d="M28 62C28 63.1046 27.1046 64 26 64C24.8954 64 24 63.1046 24 62C24 60.8954 24.8954 60 26 60C27.1046 60 28 60.8954 28 62Z" fill="#E4A30B"/>
<path d="M40 14C40 15.1046 39.1046 16 38 16C36.8954 16 36 15.1046 36 14C36 12.8954 36.8954 12 38 12C39.1046 12 40 12.8954 40 14Z" fill="#E4A30B"/>
<path d="M40 26C40 27.1046 39.1046 28 38 28C36.8954 28 36 27.1046 36 26C36 24.8954 36.8954 24 38 24C39.1046 24 40 24.8954 40 26Z" fill="#E4A30B"/>
<path d="M40 38C40 39.1046 39.1046 40 38 40C36.8954 40 36 39.1046 36 38C36 36.8954 36.8954 36 38 36C39.1046 36 40 36.8954 40 38Z" fill="#E4A30B"/>
<path d="M40 50C40 51.1046 39.1046 52 38 52C36.8954 52 36 51.1046 36 50C36 48.8954 36.8954 48 38 48C39.1046 48 40 48.8954 40 50Z" fill="#E4A30B"/>
<path d="M40 62C40 63.1046 39.1046 64 38 64C36.8954 64 36 63.1046 36 62C36 60.8954 36.8954 60 38 60C39.1046 60 40 60.8954 40 62Z" fill="#E4A30B"/>
<path d="M52 2C52 3.10457 51.1046 4 50 4C48.8954 4 48 3.10457 48 2C48 0.89543 48.8954 0 50 0C51.1046 0 52 0.89543 52 2Z" fill="#E4A30B"/>
<path d="M52 14C52 15.1046 51.1046 16 50 16C48.8954 16 48 15.1046 48 14C48 12.8954 48.8954 12 50 12C51.1046 12 52 12.8954 52 14Z" fill="#E4A30B"/>
<path d="M52 26C52 27.1046 51.1046 28 50 28C48.8954 28 48 27.1046 48 26C48 24.8954 48.8954 24 50 24C51.1046 24 52 24.8954 52 26Z" fill="#E4A30B"/>
<path d="M52 38C52 39.1046 51.1046 40 50 40C48.8954 40 48 39.1046 48 38C48 36.8954 48.8954 36 50 36C51.1046 36 52 36.8954 52 38Z" fill="#E4A30B"/>
<path d="M52 50C52 51.1046 51.1046 52 50 52C48.8954 52 48 51.1046 48 50C48 48.8954 48.8954 48 50 48C51.1046 48 52 48.8954 52 50Z" fill="#E4A30B"/>
<path d="M52 62C52 63.1046 51.1046 64 50 64C48.8954 64 48 63.1046 48 62C48 60.8954 48.8954 60 50 60C51.1046 60 52 60.8954 52 62Z" fill="#E4A30B"/>
<path d="M64 2C64 3.10457 63.1046 4 62 4C60.8954 4 60 3.10457 60 2C60 0.89543 60.8954 0 62 0C63.1046 0 64 0.89543 64 2Z" fill="#E4A30B"/>
<path d="M64 14C64 15.1046 63.1046 16 62 16C60.8954 16 60 15.1046 60 14C60 12.8954 60.8954 12 62 12C63.1046 12 64 12.8954 64 14Z" fill="#E4A30B"/>
<path d="M64 26C64 27.1046 63.1046 28 62 28C60.8954 28 60 27.1046 60 26C60 24.8954 60.8954 24 62 24C63.1046 24 64 24.8954 64 26Z" fill="#E4A30B"/>
<path d="M64 38C64 39.1046 63.1046 40 62 40C60.8954 40 60 39.1046 60 38C60 36.8954 60.8954 36 62 36C63.1046 36 64 36.8954 64 38Z" fill="#E4A30B"/>
<path d="M64 50C64 51.1046 63.1046 52 62 52C60.8954 52 60 51.1046 60 50C60 48.8954 60.8954 48 62 48C63.1046 48 64 48.8954 64 50Z" fill="#E4A30B"/>
<path d="M64 62C64 63.1046 63.1046 64 62 64C60.8954 64 60 63.1046 60 62C60 60.8954 60.8954 60 62 60C63.1046 60 64 60.8954 64 62Z" fill="#E4A30B"/>
</svg>
