<svg width="64" height="64" viewBox="0 0 64 64" fill="none" xmlns="http://www.w3.org/2000/svg">
<path d="M60 50C60 51.1046 60.8954 52 62 52C63.1046 52 64 51.1046 64 50C64 48.8954 63.1046 48 62 48C60.8954 48 60 48.8954 60 50Z" fill="#2F2F2F" fill-opacity="0.3"/>
<path d="M60 62C60 63.1046 60.8954 64 62 64C63.1046 64 64 63.1046 64 62C64 60.8954 63.1046 60 62 60C60.8954 60 60 60.8954 60 62Z" fill="#2F2F2F" fill-opacity="0.3"/>
<path d="M48 26C48 27.1046 48.8954 28 50 28C51.1046 28 52 27.1046 52 26C52 24.8954 51.1046 24 50 24C48.8954 24 48 24.8954 48 26Z" fill="#2F2F2F" fill-opacity="0.3"/>
<path d="M48 38C48 39.1046 48.8954 40 50 40C51.1046 40 52 39.1046 52 38C52 36.8954 51.1046 36 50 36C48.8954 36 48 36.8954 48 38Z" fill="#2F2F2F" fill-opacity="0.3"/>
<path d="M48 50C48 51.1046 48.8954 52 50 52C51.1046 52 52 51.1046 52 50C52 48.8954 51.1046 48 50 48C48.8954 48 48 48.8954 48 50Z" fill="#2F2F2F" fill-opacity="0.3"/>
<path d="M48 62C48 63.1046 48.8954 64 50 64C51.1046 64 52 63.1046 52 62C52 60.8954 51.1046 60 50 60C48.8954 60 48 60.8954 48 62Z" fill="#2F2F2F" fill-opacity="0.3"/>
<path d="M36 14C36 15.1046 36.8954 16 38 16C39.1046 16 40 15.1046 40 14C40 12.8954 39.1046 12 38 12C36.8954 12 36 12.8954 36 14Z" fill="#2F2F2F" fill-opacity="0.3"/>
<path d="M36 26C36 27.1046 36.8954 28 38 28C39.1046 28 40 27.1046 40 26C40 24.8954 39.1046 24 38 24C36.8954 24 36 24.8954 36 26Z" fill="#2F2F2F" fill-opacity="0.3"/>
<path d="M36 38C36 39.1046 36.8954 40 38 40C39.1046 40 40 39.1046 40 38C40 36.8954 39.1046 36 38 36C36.8954 36 36 36.8954 36 38Z" fill="#2F2F2F" fill-opacity="0.3"/>
<path d="M36 50C36 51.1046 36.8954 52 38 52C39.1046 52 40 51.1046 40 50C40 48.8954 39.1046 48 38 48C36.8954 48 36 48.8954 36 50Z" fill="#2F2F2F" fill-opacity="0.3"/>
<path d="M36 62C36 63.1046 36.8954 64 38 64C39.1046 64 40 63.1046 40 62C40 60.8954 39.1046 60 38 60C36.8954 60 36 60.8954 36 62Z" fill="#2F2F2F" fill-opacity="0.3"/>
<path d="M24 14C24 15.1046 24.8954 16 26 16C27.1046 16 28 15.1046 28 14C28 12.8954 27.1046 12 26 12C24.8954 12 24 12.8954 24 14Z" fill="#2F2F2F" fill-opacity="0.3"/>
<path d="M24 26C24 27.1046 24.8954 28 26 28C27.1046 28 28 27.1046 28 26C28 24.8954 27.1046 24 26 24C24.8954 24 24 24.8954 24 26Z" fill="#2F2F2F" fill-opacity="0.3"/>
<path d="M24 38C24 39.1046 24.8954 40 26 40C27.1046 40 28 39.1046 28 38C28 36.8954 27.1046 36 26 36C24.8954 36 24 36.8954 24 38Z" fill="#2F2F2F" fill-opacity="0.3"/>
<path d="M24 50C24 51.1046 24.8954 52 26 52C27.1046 52 28 51.1046 28 50C28 48.8954 27.1046 48 26 48C24.8954 48 24 48.8954 24 50Z" fill="#2F2F2F" fill-opacity="0.3"/>
<path d="M24 62C24 63.1046 24.8954 64 26 64C27.1046 64 28 63.1046 28 62C28 60.8954 27.1046 60 26 60C24.8954 60 24 60.8954 24 62Z" fill="#2F2F2F" fill-opacity="0.3"/>
<path d="M12 2C12 3.10457 12.8954 4 14 4C15.1046 4 16 3.10457 16 2C16 0.89543 15.1046 0 14 0C12.8954 0 12 0.89543 12 2Z" fill="#2F2F2F" fill-opacity="0.3"/>
<path d="M12 14C12 15.1046 12.8954 16 14 16C15.1046 16 16 15.1046 16 14C16 12.8954 15.1046 12 14 12C12.8954 12 12 12.8954 12 14Z" fill="#2F2F2F" fill-opacity="0.3"/>
<path d="M12 26C12 27.1046 12.8954 28 14 28C15.1046 28 16 27.1046 16 26C16 24.8954 15.1046 24 14 24C12.8954 24 12 24.8954 12 26Z" fill="#2F2F2F" fill-opacity="0.3"/>
<path d="M12 38C12 39.1046 12.8954 40 14 40C15.1046 40 16 39.1046 16 38C16 36.8954 15.1046 36 14 36C12.8954 36 12 36.8954 12 38Z" fill="#2F2F2F" fill-opacity="0.3"/>
<path d="M12 50C12 51.1046 12.8954 52 14 52C15.1046 52 16 51.1046 16 50C16 48.8954 15.1046 48 14 48C12.8954 48 12 48.8954 12 50Z" fill="#2F2F2F" fill-opacity="0.3"/>
<path d="M12 62C12 63.1046 12.8954 64 14 64C15.1046 64 16 63.1046 16 62C16 60.8954 15.1046 60 14 60C12.8954 60 12 60.8954 12 62Z" fill="#2F2F2F" fill-opacity="0.3"/>
<path d="M0 2C0 3.10457 0.89543 4 2 4C3.10457 4 4 3.10457 4 2C4 0.89543 3.10457 0 2 0C0.89543 0 0 0.89543 0 2Z" fill="#2F2F2F" fill-opacity="0.3"/>
<path d="M0 14C0 15.1046 0.89543 16 2 16C3.10457 16 4 15.1046 4 14C4 12.8954 3.10457 12 2 12C0.89543 12 0 12.8954 0 14Z" fill="#2F2F2F" fill-opacity="0.3"/>
<path d="M0 26C0 27.1046 0.89543 28 2 28C3.10457 28 4 27.1046 4 26C4 24.8954 3.10457 24 2 24C0.89543 24 0 24.8954 0 26Z" fill="#2F2F2F" fill-opacity="0.3"/>
<path d="M0 38C0 39.1046 0.89543 40 2 40C3.10457 40 4 39.1046 4 38C4 36.8954 3.10457 36 2 36C0.89543 36 0 36.8954 0 38Z" fill="#2F2F2F" fill-opacity="0.3"/>
<path d="M0 50C0 51.1046 0.89543 52 2 52C3.10457 52 4 51.1046 4 50C4 48.8954 3.10457 48 2 48C0.89543 48 0 48.8954 0 50Z" fill="#2F2F2F" fill-opacity="0.3"/>
<path d="M0 62C0 63.1046 0.89543 64 2 64C3.10457 64 4 63.1046 4 62C4 60.8954 3.10457 60 2 60C0.89543 60 0 60.8954 0 62Z" fill="#2F2F2F" fill-opacity="0.3"/>
</svg>
