<svg width="34" height="32" viewBox="0 0 34 32" fill="none" xmlns="http://www.w3.org/2000/svg">
<path d="M34 16.0977C34 7.26166 26.3883 0.0976562 17 0.0976562C7.61175 0.0976562 0 7.26166 0 16.0977C0 24.0843 6.21634 30.703 14.3438 31.903V20.723H10.0272V16.0963H14.3438V12.5737C14.3438 8.56432 16.8824 6.34832 20.7655 6.34832C22.6241 6.34832 24.5706 6.66166 24.5706 6.66166V10.599H22.4259C20.3136 10.599 19.6549 11.8323 19.6549 13.0977V16.0977H24.3695L23.6159 20.7243H19.6549V31.9043C27.7836 30.703 34 24.083 34 16.0977Z" fill="url(#paint0_linear_128_748)"/>
<defs>
<linearGradient id="paint0_linear_128_748" x1="17" y1="0.0976562" x2="17" y2="31.9043" gradientUnits="userSpaceOnUse">
<stop stop-color="#FFBB00"/>
<stop offset="1" stop-color="#F2AA18"/>
</linearGradient>
</defs>
</svg>
