<svg width="33" height="32" viewBox="0 0 33 32" fill="none" xmlns="http://www.w3.org/2000/svg">
<path d="M16.5 0C12.0175 0 11.4579 0.02 9.69788 0.096C7.94063 0.176 6.74437 0.444 5.6925 0.84C4.60762 1.248 3.68638 1.796 2.76925 2.68533C1.85212 3.57467 1.28563 4.46667 0.86625 5.52C0.457875 6.54 0.180125 7.7 0.099 9.404C0.0165 11.1107 0 11.6533 0 16C0 20.3467 0.020625 20.8893 0.099 22.596C0.1815 24.2987 0.457875 25.46 0.86625 26.48C1.287 27.5307 1.85212 28.4253 2.76925 29.3147C3.68638 30.2027 4.60625 30.7533 5.6925 31.16C6.74575 31.5547 7.942 31.8253 9.69788 31.904C11.4579 31.984 12.0175 32 16.5 32C20.9825 32 21.5421 31.98 23.3021 31.904C25.058 31.824 26.2556 31.5547 27.3075 31.16C28.391 30.752 29.3136 30.2027 30.2308 29.3147C31.1465 28.4253 31.7143 27.5347 32.1337 26.48C32.5408 25.46 32.8198 24.2987 32.901 22.596C32.9835 20.8893 33 20.3467 33 16C33 11.6533 32.9794 11.1107 32.901 9.404C32.8185 7.70133 32.5408 6.53867 32.1337 5.52C31.713 4.468 31.1465 3.57467 30.2308 2.68533C29.3136 1.796 28.3952 1.24667 27.3075 0.84C26.2556 0.444 25.058 0.174667 23.3021 0.096C21.5421 0.016 20.9825 0 16.5 0ZM16.5 2.88C20.9042 2.88 21.4294 2.90133 23.1688 2.97467C24.7775 3.048 25.6506 3.30667 26.2309 3.528C27.0036 3.81733 27.5509 4.164 28.1312 4.72267C28.7072 5.28267 29.0648 5.81467 29.3631 6.564C29.5886 7.12667 29.8581 7.97333 29.931 9.53333C30.0094 11.2213 30.0272 11.728 30.0272 16C30.0272 20.272 30.0066 20.78 29.9255 22.4667C29.8416 24.0267 29.5735 24.8733 29.3466 25.436C29.0387 26.1853 28.688 26.716 28.1105 27.2787C27.5344 27.8373 26.9775 28.184 26.213 28.4733C25.6355 28.692 24.7487 28.9533 23.1399 29.024C21.3881 29.1 20.8725 29.1173 16.4588 29.1173C12.0437 29.1173 11.528 29.0973 9.77762 29.0187C8.1675 28.9373 7.28063 28.6773 6.70312 28.4573C5.92075 28.1587 5.38313 27.8187 4.807 27.2587C4.22813 26.7 3.85825 26.16 3.5695 25.4187C3.34262 24.8587 3.07588 23.9987 2.992 22.4387C2.93012 20.7587 2.90812 20.24 2.90812 15.98C2.90812 11.7187 2.93012 11.1987 2.992 9.49867C3.07588 7.93867 3.34262 7.08 3.5695 6.52C3.85825 5.76 4.22813 5.24 4.807 4.67867C5.38313 4.12 5.92075 3.76 6.70312 3.48133C7.28063 3.26 8.14825 3 9.757 2.92C11.5101 2.86 12.0257 2.84 16.4381 2.84L16.5 2.88ZM16.5 7.784C11.8181 7.784 8.02725 11.464 8.02725 16C8.02725 20.54 11.8223 24.216 16.5 24.216C21.1819 24.216 24.9727 20.536 24.9727 16C24.9727 11.46 21.1777 7.784 16.5 7.784ZM16.5 21.3333C13.4612 21.3333 11 18.9467 11 16C11 13.0533 13.4612 10.6667 16.5 10.6667C19.5388 10.6667 22 13.0533 22 16C22 18.9467 19.5388 21.3333 16.5 21.3333ZM27.2882 7.46C27.2882 8.52 26.4 9.38 25.3082 9.38C24.2151 9.38 23.3282 8.51867 23.3282 7.46C23.3282 6.40133 24.2165 5.54133 25.3082 5.54133C26.3987 5.54 27.2882 6.40133 27.2882 7.46Z" fill="url(#paint0_linear_128_750)"/>
<defs>
<linearGradient id="paint0_linear_128_750" x1="16.5" y1="0" x2="16.5" y2="32" gradientUnits="userSpaceOnUse">
<stop stop-color="#FFBB00"/>
<stop offset="1" stop-color="#F2AA18"/>
</linearGradient>
</defs>
</svg>
