<svg width="32" height="32" viewBox="0 0 32 32" fill="none" xmlns="http://www.w3.org/2000/svg">
<path d="M16 0.142578C11.6533 0.142578 11.1107 0.162076 9.404 0.236166C7.7 0.314155 6.54 0.575421 5.52 0.961469C4.468 1.35922 3.57467 1.89345 2.68533 2.76043C1.796 3.62742 1.24667 4.497 0.84 5.52386C0.444 6.51823 0.174667 7.64908 0.096 9.31026C0.016 10.9741 0 11.503 0 15.7405C0 19.978 0.02 20.5069 0.096 22.1708C0.176 23.8307 0.444 24.9628 0.84 25.9572C1.248 26.9814 1.796 27.8536 2.68533 28.7206C3.57467 29.5863 4.46667 30.1231 5.52 30.5195C6.54133 30.9043 7.70133 31.1681 9.404 31.2449C11.1107 31.3228 11.6533 31.3384 16 31.3384C20.3467 31.3384 20.8893 31.3189 22.596 31.2449C24.2987 31.1669 25.46 30.9043 26.48 30.5195C27.5307 30.1218 28.4253 29.5863 29.3147 28.7206C30.2027 27.8536 30.7533 26.9853 31.16 25.9572C31.5547 24.9628 31.8253 23.8307 31.904 22.1708C31.984 20.5069 32 19.978 32 15.7405C32 11.503 31.98 10.9741 31.904 9.31026C31.824 7.65038 31.5547 6.51694 31.16 5.52386C30.752 4.4983 30.2027 3.62742 29.3147 2.76043C28.4253 1.89345 27.5347 1.35792 26.48 0.961469C25.46 0.575421 24.2987 0.312856 22.596 0.236166C20.8893 0.158176 20.3467 0.142578 16 0.142578ZM16 2.95021C20.2707 2.95021 20.78 2.971 22.4667 3.0425C24.0267 3.11398 24.8733 3.36615 25.436 3.58192C26.1853 3.86398 26.716 4.20194 27.2787 4.74657C27.8373 5.2925 28.184 5.81113 28.4733 6.54163C28.692 7.09016 28.9533 7.91554 29.024 9.43634C29.1 11.0819 29.1173 11.5759 29.1173 15.7405C29.1173 19.9052 29.0973 20.4004 29.0187 22.0447C28.9373 23.5655 28.6773 24.3908 28.4573 24.9394C28.1587 25.6699 27.8187 26.1872 27.2587 26.7358C26.7 27.2803 26.16 27.6183 25.4187 27.9004C24.8587 28.1136 23.9987 28.3683 22.4387 28.4372C20.74 28.5113 20.24 28.5282 15.96 28.5282C11.6787 28.5282 11.1787 28.5087 9.48133 28.4321C7.92 28.3527 7.06 28.0992 6.5 27.8848C5.74133 27.5937 5.22 27.2622 4.66133 26.7163C4.1 26.1716 3.74133 25.6452 3.46133 24.9225C3.24133 24.3766 2.98267 23.5382 2.90133 22.0174C2.84133 20.3796 2.82 19.874 2.82 15.721C2.82 11.5668 2.84133 11.0599 2.90133 9.40255C2.98267 7.88175 3.24133 7.04466 3.46133 6.49873C3.74133 5.75783 4.1 5.2509 4.66133 4.70368C5.22 4.15905 5.74133 3.80809 6.5 3.53642C7.06 3.32066 7.90133 3.06719 9.46133 2.9892C11.1613 2.93071 11.6613 2.91121 15.94 2.91121L16 2.95021ZM16 7.73097C11.46 7.73097 7.784 11.3185 7.784 15.7405C7.784 20.1664 11.464 23.75 16 23.75C20.54 23.75 24.216 20.1625 24.216 15.7405C24.216 11.3146 20.536 7.73097 16 7.73097ZM16 20.9398C13.0533 20.9398 10.6667 18.6132 10.6667 15.7405C10.6667 12.8679 13.0533 10.5412 16 10.5412C18.9467 10.5412 21.3333 12.8679 21.3333 15.7405C21.3333 18.6132 18.9467 20.9398 16 20.9398ZM26.4613 7.41511C26.4613 8.44848 25.6 9.28687 24.5413 9.28687C23.4813 9.28687 22.6213 8.44718 22.6213 7.41511C22.6213 6.38305 23.4827 5.54466 24.5413 5.54466C25.5987 5.54336 26.4613 6.38305 26.4613 7.41511Z" fill="white"/>
</svg>
