<svg width="32" height="22" viewBox="0 0 32 22" fill="none" xmlns="http://www.w3.org/2000/svg">
<path d="M31.3307 3.44994C31.1499 2.78608 30.7934 2.18018 30.2968 1.69291C29.8003 1.20564 29.1811 0.854104 28.5013 0.673509C26.0067 0.0170897 16 0.0170898 16 0.0170898C16 0.0170898 5.99333 0.0170897 3.49733 0.673509C2.81788 0.854426 2.19906 1.20609 1.70277 1.69332C1.20648 2.18056 0.850122 2.7863 0.669333 3.44994C0 5.89882 0 11.0071 0 11.0071C0 11.0071 0 16.1155 0.669333 18.5643C0.850115 19.2282 1.20663 19.8341 1.70319 20.3213C2.19974 20.8086 2.8189 21.1601 3.49867 21.3408C5.99333 21.9971 16 21.9971 16 21.9971C16 21.9971 26.0067 21.9971 28.5027 21.3408C29.1825 21.1603 29.8017 20.8088 30.2983 20.3215C30.7949 19.8342 31.1513 19.2282 31.332 18.5643C32 16.1155 32 11.0071 32 11.0071C32 11.0071 32 5.89882 31.3307 3.44994ZM12.7267 15.6449V6.36939L21.0907 11.0071L12.7267 15.6449Z" fill="white"/>
</svg>
