<svg width="34" height="24" viewBox="0 0 34 24" fill="none" xmlns="http://www.w3.org/2000/svg">
<path d="M33.2889 4.2479C33.0968 3.56693 32.718 2.94541 32.1904 2.44558C31.6628 1.94575 31.0049 1.58515 30.2826 1.3999C27.6321 0.726562 17 0.726563 17 0.726563C17 0.726563 6.36791 0.726562 3.71591 1.3999C2.994 1.58548 2.3365 1.94621 1.80919 2.446C1.28188 2.9458 0.903255 3.56715 0.711166 4.2479C0 6.7599 0 11.9999 0 11.9999C0 11.9999 0 17.2399 0.711166 19.7519C0.903247 20.4329 1.28204 21.0544 1.80964 21.5542C2.33722 22.054 2.99508 22.4146 3.71734 22.5999C6.36791 23.2732 17 23.2732 17 23.2732C17 23.2732 27.6321 23.2732 30.2841 22.5999C31.0064 22.4148 31.6643 22.0542 32.1919 21.5544C32.7196 21.0545 33.0983 20.4329 33.2903 19.7519C34 17.2399 34 11.9999 34 11.9999C34 11.9999 34 6.7599 33.2889 4.2479ZM13.5221 16.7572V7.2426L22.4089 11.9999L13.5221 16.7572Z" fill="url(#paint0_linear_128_752)"/>
<defs>
<linearGradient id="paint0_linear_128_752" x1="17" y1="0.726562" x2="17" y2="23.2732" gradientUnits="userSpaceOnUse">
<stop stop-color="#FFBB00"/>
<stop offset="1" stop-color="#F2AA18"/>
</linearGradient>
</defs>
</svg>
