<svg width="134" height="32" fill="none" xmlns="http://www.w3.org/2000/svg"><path d="M5.04 12.415c.648-1.048 1.536-1.9 2.664-2.554 1.152-.655 2.46-.982 3.924-.982 1.704 0 3.24.458 4.608 1.375 1.392.917 2.484 2.226 3.276 3.929.816 1.676 1.224 3.628 1.224 5.854 0 2.227-.408 4.204-1.224 5.933-.792 1.702-1.884 3.025-3.276 3.968-1.368.943-2.904 1.414-4.608 1.414-1.488 0-2.796-.314-3.924-.942-1.104-.655-1.992-1.494-2.664-2.515v3.104H0V1.925h5.04v10.49Zm10.548 7.622c0-1.31-.252-2.436-.756-3.379-.48-.969-1.128-1.702-1.944-2.2a4.778 4.778 0 0 0-2.592-.747c-.912 0-1.776.262-2.592.786-.792.498-1.44 1.231-1.944 2.2-.48.97-.72 2.109-.72 3.419s.24 2.449.72 3.418c.504.969 1.152 1.716 1.944 2.24.816.497 1.68.746 2.592.746.936 0 1.8-.262 2.592-.786.816-.524 1.464-1.27 1.944-2.24.504-.969.756-2.121.756-3.457ZM26.954 6.64c-.888 0-1.632-.3-2.232-.903-.576-.629-.864-1.402-.864-2.318 0-.917.288-1.677.864-2.28.6-.628 1.344-.942 2.232-.942.888 0 1.62.314 2.196.943.6.602.9 1.362.9 2.279 0 .916-.3 1.689-.9 2.318-.576.602-1.308.903-2.196.903Zm2.484 2.593V31h-5.04V9.232h5.04ZM46.226 31l-6.768-9.272v9.272h-5.04V1.925h5.04v16.54l6.696-9.233h6.552l-8.784 10.923 8.856 10.844h-6.552Zm6.919-10.883c0-2.253.42-4.217 1.26-5.894.84-1.702 2.004-3.012 3.492-3.929 1.488-.943 3.192-1.414 5.112-1.414 2.472 0 4.512.68 6.12 2.043 1.632 1.336 2.724 3.222 3.276 5.658H66.97c-.288-.943-.78-1.677-1.476-2.2-.672-.55-1.512-.826-2.52-.826-1.44 0-2.58.576-3.42 1.729-.84 1.126-1.26 2.737-1.26 4.833 0 2.069.42 3.68 1.26 4.832.84 1.127 1.98 1.69 3.42 1.69 2.04 0 3.372-.996 3.996-2.986h5.436c-.552 2.357-1.644 4.23-3.276 5.618s-3.672 2.082-6.12 2.082c-1.92 0-3.624-.458-5.112-1.375-1.476-.93-2.686-2.29-3.492-3.929-.84-1.702-1.261-3.68-1.261-5.932Zm26.993-7.505a7.479 7.479 0 0 1 2.52-2.71c1.056-.655 2.256-.983 3.6-.983v5.776h-1.332c-1.584 0-2.784.406-3.6 1.218-.792.812-1.188 2.226-1.188 4.243v10.844h-5.04V9.232h5.04v3.38Zm21.574 15.284c-.552.995-1.452 1.834-2.7 2.515a8.55 8.55 0 0 1-4.032.982c-1.248 0-2.376-.275-3.384-.825a6.119 6.119 0 0 1-2.376-2.28c-.576-.968-.864-2.081-.864-3.339 0-2.017.684-3.667 2.052-4.95 1.392-1.284 3.468-1.925 6.228-1.925h5.076c-.048-1.389-.42-2.489-1.116-3.3-.672-.839-1.608-1.258-2.808-1.258-1.056 0-1.932.314-2.628.943-.696.602-1.14 1.454-1.332 2.554h-5.04c.24-1.572.756-2.973 1.548-4.204A8.367 8.367 0 0 1 93.504 9.9c1.32-.707 2.796-1.06 4.428-1.06 1.68 0 3.192.38 4.536 1.139 1.335.726 2.448 1.858 3.204 3.261.768 1.414 1.152 3.078 1.152 4.99v12.769h-5.112v-3.104Zm-5.256-.943c.84 0 1.656-.196 2.448-.59a5.03 5.03 0 0 0 2.016-1.767c.528-.786.792-1.716.792-2.79v-.157h-4.788c-1.152 0-2.016.249-2.592.746-.552.498-.828 1.153-.828 1.965 0 .786.252 1.414.756 1.886.528.471 1.26.707 2.196.707Zm20.997-13.201v17.248h-5.112V13.75h-2.268V9.232h2.268v-1.1c0-2.671.696-4.636 2.088-5.893 1.392-1.257 3.492-1.847 6.3-1.768v4.636c-1.224-.026-2.076.196-2.556.668-.48.471-.72 1.323-.72 2.554v.903h6.55V3.85h5.076v5.382h4.464v4.519h-4.464v10.53c0 .733.156 1.27.468 1.61.336.315.888.472 1.656.472h2.34v4.636h-3.168c-4.248 0-6.372-2.253-6.372-6.758v-10.49h-6.55Z" fill="#fff"/></svg>